<?xml version="1.0" encoding="UTF-8" standalone="no"?>
<!-- Created with Inkscape (http://www.inkscape.org/) -->

<svg
   width="63.488277"
   height="65.332031"
   viewBox="0 0 16.797939 17.285767"
   version="1.1"
   id="svg1"
   xml:space="preserve"
   xmlns="http://www.w3.org/2000/svg"
   xmlns:svg="http://www.w3.org/2000/svg"><defs
     id="defs1"><linearGradient
       id="linearGradient65"><stop
         style="stop-color:#ebf7ff;stop-opacity:1;"
         offset="0"
         id="stop66" /><stop
         style="stop-color:#ebf7ff;stop-opacity:0;"
         offset="1"
         id="stop67" /></linearGradient></defs><g
     id="layer1"
     transform="translate(15864.681,12483.305)"><path
       d="m -15854.051,-12483.306 c 0.877,0 1.582,0.706 1.582,1.582 v 9.537 c 0,0.877 -0.705,1.582 -1.582,1.582 h -9.048 c -0.876,0 -1.582,-0.705 -1.582,-1.582 v -7.419 h 2.521 c 0.584,0 1.056,-0.473 1.056,-1.056 v -2.644 z"
       style="fill:#1c96ff;fill-opacity:1;fill-rule:evenodd;stroke-width:3.93864;stroke-linecap:round;stroke-linejoin:round;stroke-miterlimit:5;paint-order:stroke fill markers"
       id="path84-8-1-2-0-5-0-1-2" /><rect
       style="fill:#88e3ff;fill-opacity:1;fill-rule:evenodd;stroke:none;stroke-width:2.00702;stroke-linecap:round;stroke-linejoin:round;stroke-miterlimit:5;stroke-dasharray:none;stroke-opacity:1;paint-order:stroke fill markers"
       id="rect81-4-3-8-9-7-1-7-8-4"
       width="7.9473472"
       height="1.1425898"
       x="-15862.549"
       y="-12477.162"
       rx="0.5712949"
       ry="0.5712949" /><path
       id="rect81-5-0-3-4-8-8-2-7-5-6-4"
       style="fill:#88e3ff;fill-opacity:1;fill-rule:evenodd;stroke-width:2.00702;stroke-linecap:round;stroke-linejoin:round;stroke-miterlimit:5;paint-order:stroke fill markers"
       d="m -15861.977,-12474.942 h 4.416 c 0.316,0 0.571,0.255 0.571,0.571 0,0.317 -0.255,0.572 -0.571,0.572 h -4.416 c -0.317,0 -0.571,-0.255 -0.571,-0.572 0,-0.316 0.254,-0.571 0.571,-0.571 z" /><path
       style="fill:#88e3ff;fill-opacity:1;fill-rule:evenodd;stroke:none;stroke-width:22.7012;stroke-linecap:round;stroke-linejoin:round;stroke-miterlimit:5;stroke-dasharray:none;stroke-opacity:1;paint-order:stroke fill markers"
       d="m -3417.6724,1127.1643 23.6345,24.4474 h -16.6587 a 6.9757937,6.9757937 45 0 1 -6.9758,-6.9758 z"
       id="path83-5-4-7-7-7-0-6-3-4"
       transform="matrix(-0.15133451,0,0,0.15133451,-16378.316,-12653.885)" /><circle
       style="fill:#88e3ff;fill-opacity:1;fill-rule:evenodd;stroke:none;stroke-width:0.529166;stroke-linecap:round;stroke-linejoin:round;stroke-miterlimit:5;paint-order:stroke fill markers"
       id="path31-6"
       cx="-15852.469"
       cy="-12470.605"
       r="4.5853801" /><path
       style="fill:#1c96ff;fill-opacity:1;fill-rule:evenodd;stroke:#1c96ff;stroke-width:1.32292;stroke-linecap:round;stroke-linejoin:round;stroke-miterlimit:5;stroke-dasharray:none;stroke-opacity:1;paint-order:stroke fill markers"
       d="m -15852.469,-12472.486 v 3.761"
       id="path32-49" /><path
       style="fill:#1c96ff;fill-opacity:1;fill-rule:evenodd;stroke:#1c96ff;stroke-width:1.32292;stroke-linecap:round;stroke-linejoin:round;stroke-miterlimit:5;stroke-dasharray:none;stroke-opacity:1;paint-order:stroke fill markers"
       d="m -15850.588,-12470.605 h -3.761"
       id="path32-7-1" /></g><style
     type="text/css"
     id="style1">
	.puchipuchi_een{fill:#111918;}
</style></svg>
