<?xml version="1.0" encoding="UTF-8" standalone="no"?>
<!-- Created with Inkscape (http://www.inkscape.org/) -->

<svg
   width="54.085938"
   height="63.320309"
   viewBox="0 0 14.310237 16.753498"
   version="1.1"
   id="svg1"
   xml:space="preserve"
   xmlns="http://www.w3.org/2000/svg"
   xmlns:svg="http://www.w3.org/2000/svg"><defs
     id="defs1"><linearGradient
       id="linearGradient65"><stop
         style="stop-color:#ebf7ff;stop-opacity:1;"
         offset="0"
         id="stop66" /><stop
         style="stop-color:#ebf7ff;stop-opacity:0;"
         offset="1"
         id="stop67" /></linearGradient></defs><g
     id="layer1"
     transform="translate(15823.142,12470.607)"><path
       id="rect80-7-2-2-3-3-1-5-7"
       style="fill:#88e3ff;fill-opacity:1;fill-rule:evenodd;stroke-width:3.77783;stroke-linecap:round;stroke-linejoin:round;stroke-miterlimit:5;paint-order:stroke fill markers"
       d="m -15821.631,-12468.437 h 8.638 c 0.837,0 1.511,0.674 1.511,1.51 v 11.563 c 0,0.837 -0.674,1.51 -1.511,1.51 h -8.638 c -0.837,0 -1.511,-0.673 -1.511,-1.51 v -11.563 c 0,-0.836 0.674,-1.51 1.511,-1.51 z" /><path
       d="m -15818.981,-12470.606 c -0.837,0 -1.51,0.673 -1.51,1.51 v 11.556 c 0,0.837 0.673,1.51 1.51,1.51 h 8.639 c 0.836,0 1.51,-0.673 1.51,-1.51 v -9.534 h -2.407 c -0.557,0 -1.008,-0.451 -1.008,-1.008 v -2.524 z"
       style="fill:#1c96ff;fill-opacity:1;fill-rule:evenodd;stroke-width:3.77783;stroke-linecap:round;stroke-linejoin:round;stroke-miterlimit:5;paint-order:stroke fill markers"
       id="path84-7-8-8-1-8-9-3" /><rect
       style="fill:#88e3ff;fill-opacity:1;fill-rule:evenodd;stroke:none;stroke-width:1.92508;stroke-linecap:round;stroke-linejoin:round;stroke-miterlimit:5;stroke-dasharray:none;stroke-opacity:1;paint-order:stroke fill markers"
       id="rect81-4-0-4-4-2-5-9-6"
       width="7.5879736"
       height="1.0909226"
       x="-15818.456"
       y="-12464.194"
       rx="0.94030994"
       ry="0.94030994" /><rect
       style="fill:#88e3ff;fill-opacity:1;fill-rule:evenodd;stroke:none;stroke-width:1.92508;stroke-linecap:round;stroke-linejoin:round;stroke-miterlimit:5;stroke-dasharray:none;stroke-opacity:1;paint-order:stroke fill markers"
       id="rect81-5-9-4-0-0-1-9-4-8"
       width="7.5879736"
       height="1.0909226"
       x="-15818.456"
       y="-12461.861"
       rx="0.94030994"
       ry="0.94030994" /><path
       id="rect81-5-0-3-53-9-1-2-1-9-9"
       style="fill:#88e3ff;fill-opacity:1;fill-rule:evenodd;stroke-width:1.92508;stroke-linecap:round;stroke-linejoin:round;stroke-miterlimit:5;paint-order:stroke fill markers"
       d="m -15817.91,-12459.527 h 4.216 c 0.302,0 0.545,0.243 0.545,0.545 0,0.303 -0.243,0.546 -0.545,0.546 h -4.216 c -0.302,0 -0.546,-0.243 -0.546,-0.546 0,-0.302 0.244,-0.545 0.546,-0.545 z" /><path
       style="fill:#88e3ff;fill-opacity:1;fill-rule:evenodd;stroke:none;stroke-width:22.8056;stroke-linecap:round;stroke-linejoin:round;stroke-miterlimit:5;stroke-dasharray:none;stroke-opacity:1;paint-order:stroke fill markers"
       d="m -3417.6724,1127.1643 23.6345,24.4474 h -16.6587 a 6.9757937,6.9757937 45 0 1 -6.9758,-6.9758 z"
       id="path83-5-9-8-8-6-0-5-8"
       transform="matrix(0.14449126,0,0,0.14449126,-15318.423,-12633.472)" /></g><style
     type="text/css"
     id="style1">
	.puchipuchi_een{fill:#111918;}
</style></svg>
