<?xml version="1.0" encoding="UTF-8" standalone="no"?>
<!-- Created with Inkscape (http://www.inkscape.org/) -->

<svg
   width="233.02148"
   height="280.8291"
   viewBox="0 0 61.653599 74.3027"
   version="1.1"
   id="svg1"
   xml:space="preserve"
   xmlns="http://www.w3.org/2000/svg"
   xmlns:svg="http://www.w3.org/2000/svg"><defs
     id="defs1"><linearGradient
       id="linearGradient65"><stop
         style="stop-color:#ebf7ff;stop-opacity:1;"
         offset="0"
         id="stop66" /><stop
         style="stop-color:#ebf7ff;stop-opacity:0;"
         offset="1"
         id="stop67" /></linearGradient></defs><g
     id="layer1"
     transform="translate(-2431.6897,1384.0987)"><g
       id="g15"
       transform="matrix(0.17206842,0,0,0.17206842,1385.8396,-698.63953)">
				<g
   id="g10"
   transform="translate(6060.0067,-4026.8301)">
					<path
   style="clip-rule:evenodd;fill:#a1d7ff;fill-opacity:1;fill-rule:evenodd"
   d="m 333.531,123.038 c -1.036,-3.759 -2.367,-9.826 -5.809,-11.715 -4.094,-2.253 -11.374,-1.072 -14.94,-3.245 -0.973,-0.593 -1.777,-1.643 -2.461,-2.958 L 300.173,60.4 C 297.472,48.498 285.634,41.039 273.732,43.74 L 35.313,97.845 c -11.902,2.701 -19.361,14.539 -16.66,26.441 l 75.683,333.509 c 2.701,11.902 14.539,19.361 26.441,16.66 L 359.196,420.35 c 11.902,-2.701 19.361,-14.539 16.66,-26.441 L 329.42,189.282 c -0.509,-2.24 0.074,-4.596 1.592,-6.321 0.902,-1.025 1.859,-2.107 2.715,-3.307 1.966,-2.755 4.227,-6.427 5.406,-9.66 1.746,-4.784 0.842,-11.431 -0.083,-17.624 -1.576,-10.556 -2.872,-19.735 -5.519,-29.332 z"
   id="path4" />
					<g
   id="g9">
						
						
					</g>
				</g>
				<g
   id="g14"
   transform="translate(6060.0067,-4026.8301)">
					<path
   style="clip-rule:evenodd;fill:#ffffff;fill-rule:evenodd"
   d="m 250.303,153.32 12.512,62.567 c 1.456,7.282 -3.201,14.384 -10.459,15.952 l -110.099,23.777 c -7.108,1.535 -14.166,-2.797 -16.015,-9.83 l -15.887,-60.424 c -1.953,-7.428 2.632,-14.997 10.119,-16.708 l 113.474,-25.92 c 7.459,-1.704 14.854,3.083 16.355,10.586 z"
   id="path10" />
					<g
   id="g13">
						<path
   style="fill:#0079d2;fill-opacity:1"
   d="M 235.351,168.23 129.67,192.212 c -2.22,0.504 -4.424,-0.887 -4.928,-3.105 -0.503,-2.218 0.885,-4.424 3.105,-4.928 l 105.681,-23.982 c 2.22,-0.504 4.424,0.887 4.928,3.105 0.503,2.218 -0.885,4.424 -3.105,4.928 z"
   id="path11" />
						<path
   style="fill:#0079d2;fill-opacity:1"
   d="m 240.193,189.567 -105.681,23.982 c -2.22,0.504 -4.424,-0.887 -4.928,-3.105 -0.503,-2.218 0.885,-4.424 3.105,-4.928 L 238.37,181.534 c 2.22,-0.504 4.424,0.887 4.928,3.105 0.503,2.218 -0.885,4.424 -3.105,4.928 z"
   id="path12" />
						<path
   style="fill:#0079d2;fill-opacity:1"
   d="m 245.035,210.904 -105.681,23.982 c -2.22,0.504 -4.424,-0.887 -4.928,-3.105 -0.503,-2.218 0.885,-4.424 3.105,-4.928 l 105.681,-23.982 c 2.22,-0.504 4.424,0.887 4.928,3.105 0.503,2.218 -0.885,4.424 -3.105,4.928 z"
   id="path13" />
					</g>
				</g>
			</g></g></svg>
