<?xml version="1.0" encoding="UTF-8" standalone="no"?>
<!-- Created with Inkscape (http://www.inkscape.org/) -->

<svg
   width="44.066406"
   height="65.984375"
   viewBox="0 0 11.659236 17.458366"
   version="1.1"
   id="svg1"
   xml:space="preserve"
   xmlns="http://www.w3.org/2000/svg"
   xmlns:svg="http://www.w3.org/2000/svg"><defs
     id="defs1"><linearGradient
       id="linearGradient65"><stop
         style="stop-color:#ebf7ff;stop-opacity:1;"
         offset="0"
         id="stop66" /><stop
         style="stop-color:#ebf7ff;stop-opacity:0;"
         offset="1"
         id="stop67" /></linearGradient></defs><g
     id="layer1"
     transform="translate(15831.609,12402.344)"><path
       d="m -15830.098,-12402.343 c -0.837,0 -1.51,0.673 -1.51,1.51 v 11.556 c 0,0.837 0.673,1.51 1.51,1.51 h 8.639 c 0.836,0 1.51,-0.673 1.51,-1.51 v -9.534 h -2.407 c -0.557,0 -1.008,-0.451 -1.008,-1.008 v -2.524 z"
       style="fill:#1c96ff;fill-opacity:1;fill-rule:evenodd;stroke-width:3.77783;stroke-linecap:round;stroke-linejoin:round;stroke-miterlimit:5;paint-order:stroke fill markers"
       id="path84-7-8-8-1-8-7-6-0-1" /><rect
       style="fill:#88e3ff;fill-opacity:1;fill-rule:evenodd;stroke:none;stroke-width:1.92508;stroke-linecap:round;stroke-linejoin:round;stroke-miterlimit:5;stroke-dasharray:none;stroke-opacity:1;paint-order:stroke fill markers"
       id="rect81-4-0-4-4-2-5-4-2-6-2"
       width="7.5879736"
       height="1.0909226"
       x="-15829.572"
       y="-12395.932"
       rx="0.5454613"
       ry="0.5454613" /><rect
       style="fill:#1c96ff;fill-opacity:1;fill-rule:evenodd;stroke:none;stroke-width:1.92507;stroke-linecap:round;stroke-linejoin:round;stroke-miterlimit:5;stroke-dasharray:none;stroke-opacity:1;paint-order:stroke fill markers"
       id="rect81-4-0-4-4-2-5-4-2-6-0-1"
       width="11.658579"
       height="1.3185508"
       x="-15831.608"
       y="-12386.204"
       rx="0.65927541"
       ry="0.65927541" /><rect
       style="fill:#88e3ff;fill-opacity:1;fill-rule:evenodd;stroke:none;stroke-width:1.92508;stroke-linecap:round;stroke-linejoin:round;stroke-miterlimit:5;stroke-dasharray:none;stroke-opacity:1;paint-order:stroke fill markers"
       id="rect81-5-9-4-0-0-1-9-2-4-0-7"
       width="7.5879736"
       height="1.0909226"
       x="-15829.572"
       y="-12393.599"
       rx="0.5454613"
       ry="0.5454613" /><path
       id="rect81-5-0-3-53-9-1-2-1-4-4-7-1"
       style="fill:#88e3ff;fill-opacity:1;fill-rule:evenodd;stroke-width:1.92508;stroke-linecap:round;stroke-linejoin:round;stroke-miterlimit:5;paint-order:stroke fill markers"
       d="m -15829.027,-12391.264 h 4.216 c 0.302,0 0.545,0.243 0.545,0.545 0,0.303 -0.243,0.546 -0.545,0.546 h -4.216 c -0.302,0 -0.546,-0.243 -0.546,-0.546 0,-0.302 0.244,-0.545 0.546,-0.545 z" /><path
       style="fill:#88e3ff;fill-opacity:1;fill-rule:evenodd;stroke:none;stroke-width:22.8056;stroke-linecap:round;stroke-linejoin:round;stroke-miterlimit:5;stroke-dasharray:none;stroke-opacity:1;paint-order:stroke fill markers"
       d="m -3417.6724,1127.1643 23.6345,24.4474 h -16.6587 a 6.9757937,6.9757937 45 0 1 -6.9758,-6.9758 z"
       id="path83-5-9-8-8-6-0-9-2-5-8"
       transform="matrix(0.14449126,0,0,0.14449126,-15329.54,-12565.209)" /></g><style
     type="text/css"
     id="style1">
	.puchipuchi_een{fill:#111918;}
</style></svg>
