<?xml version="1.0" encoding="UTF-8" standalone="no"?>
<!-- Created with Inkscape (http://www.inkscape.org/) -->

<svg
   width="669.39648"
   height="670.15692"
   viewBox="0 0 177.11115 177.31235"
   version="1.1"
   id="svg1"
   xml:space="preserve"
   xmlns="http://www.w3.org/2000/svg"
   xmlns:svg="http://www.w3.org/2000/svg"><defs
     id="defs1"><linearGradient
       id="linearGradient65"><stop
         style="stop-color:#ebf7ff;stop-opacity:1;"
         offset="0"
         id="stop66" /><stop
         style="stop-color:#ebf7ff;stop-opacity:0;"
         offset="1"
         id="stop67" /></linearGradient></defs><g
     id="layer1"
     transform="translate(3829.9532,-328.87737)"><g
       style="fill:#dbdbdb;fill-opacity:1;stroke-width:1.00001;stroke-dasharray:none"
       id="g36"
       transform="matrix(8.8194442,0,0,8.8194442,-3847.2311,316.10999)"><path
         d="M 10.4127,8.49812 10.5766,8.20419 C 11.2099,7.06807 11.5266,6.5 12,6.5 c 0.4734,0 0.7901,0.56806 1.4234,1.70419 l 0.1639,0.29394 c 0.1799,0.32284 0.2699,0.48426 0.4102,0.59077 0.1403,0.10651 0.3151,0.14605 0.6646,0.22512 l 0.3181,0.07199 c 1.2299,0.27827 1.8448,0.4174 1.9911,0.88789 0.1463,0.4704 -0.2729,0.9606 -1.1113,1.9411 l -0.217,0.2536 c -0.2382,0.2786 -0.3573,0.4179 -0.4109,0.5903 -0.0536,0.1723 -0.0356,0.3582 4e-4,0.7299 l 0.0328,0.3384 c 0.1268,1.3081 0.1901,1.9622 -0.1929,2.2529 -0.383,0.2908 -0.9587,0.0257 -2.1102,-0.5045 L 12.6643,15.7384 C 12.337,15.5878 12.1734,15.5124 12,15.5124 c -0.1734,0 -0.337,0.0754 -0.6643,0.226 l -0.2979,0.1372 C 9.88633,16.4058 9.31059,16.6709 8.92757,16.3801 8.54456,16.0894 8.60794,15.4353 8.7347,14.1272 L 8.76749,13.7888 C 8.80351,13.4171 8.82152,13.2312 8.76793,13.0589 8.71434,12.8865 8.59521,12.7472 8.35696,12.4686 L 8.14005,12.215 C 7.30162,11.2345 6.88241,10.7443 7.02871,10.2739 7.17501,9.80341 7.78994,9.66427 9.01977,9.38601 L 9.33794,9.31402 C 9.68743,9.23495 9.86217,9.19541 10.0025,9.0889 10.1428,8.98239 10.2328,8.82097 10.4127,8.49812 Z"
         fill="#1c274c"
         id="path2-8"
         style="fill:#dbdbdb;fill-opacity:1" /></g><path
       fill="#c8c8c8"
       d="m -3743.9945,335.49606 c 25.3156,-0.23267 47.9908,9.24643 64.7225,28.5539 31.6202,36.4889 24.7251,93.68863 -15.5602,121.16064 -13.4803,9.19195 -27.544,13.59782 -43.8186,14.30121 -43.3293,1.73023 -82.1834,-32.41585 -84.5535,-75.90965 -2.578,-47.31121 31.5332,-85.55786 79.2098,-88.1061 z"
       id="path1-0-4-7"
       style="fill:none;stroke:#dbdbdb;stroke-width:13.2292;stroke-dasharray:none;stroke-opacity:1" /></g><style
     type="text/css"
     id="style1">
	.puchipuchi_een{fill:#111918;}
</style></svg>
