<?xml version="1.0" encoding="UTF-8" standalone="no"?>
<!-- Created with Inkscape (http://www.inkscape.org/) -->

<svg
   width="669.39648"
   height="670.15692"
   viewBox="0 0 177.11115 177.31235"
   version="1.1"
   id="svg1"
   xml:space="preserve"
   xmlns="http://www.w3.org/2000/svg"
   xmlns:svg="http://www.w3.org/2000/svg"><defs
     id="defs1"><linearGradient
       id="linearGradient65"><stop
         style="stop-color:#ebf7ff;stop-opacity:1;"
         offset="0"
         id="stop66" /><stop
         style="stop-color:#ebf7ff;stop-opacity:0;"
         offset="1"
         id="stop67" /></linearGradient></defs><g
     id="layer1"
     transform="translate(4619.4229,-331.61062)"><path
       fill="#c8c8c8"
       d="m -4533.4642,338.2293 c 25.3156,-0.23266 47.9908,9.24643 64.7225,28.5539 31.6202,36.4889 24.7251,93.68863 -15.5602,121.16064 -13.4803,9.19195 -27.5441,13.59782 -43.8187,14.30121 -43.3292,1.73023 -82.1833,-32.41585 -84.5534,-75.90965 -2.578,-47.31121 31.5331,-85.55786 79.2098,-88.1061 z"
       id="path1-0-4-7-9"
       style="fill:none;stroke:#dbdbdb;stroke-width:13.2292;stroke-dasharray:none;stroke-opacity:1" /><g
       id="g69"
       transform="matrix(0.22027554,0,0,0.22027554,-4447.3029,304.78906)"
       style="fill:#dbdbdb;fill-opacity:1;stroke-width:1.00001;stroke-dasharray:none"><path
         fill="#fefefe"
         d="m -381.39237,306.69779 c 59.516,-3.308 69.702,88.126 5.766,94.808 -66.764,1.652 -68.114,-90.818 -5.766,-94.808 z"
         id="path3-04-9"
         style="fill:#dbdbdb;fill-opacity:1;stroke-width:2.00002;stroke-dasharray:none" /><path
         fill="#fefefe"
         d="m -386.30237,458.63179 c 11.66,-0.888 22.382,0.622 32.426,6.974 28.458,17.996 23.232,44.914 23.24,74.198 l -0.01,122.732 c -0.002,33.7 3.026,69.768 -40.576,78.814 -26.846,3.764 -51.278,-13.056 -56.178,-40.114 -1.826,-10.09 -0.746,-21.66 -0.75,-31.958 l -0.006,-131.81 c 0.006,-33.846 -3.692,-70.988 41.854,-78.836 z"
         id="path4-0-3"
         style="fill:#dbdbdb;fill-opacity:1;stroke-width:2.00002;stroke-dasharray:none" /></g></g><style
     type="text/css"
     id="style1">
	.puchipuchi_een{fill:#111918;}
</style></svg>
