<?xml version="1.0" encoding="UTF-8" standalone="no"?>
<!-- Created with Inkscape (http://www.inkscape.org/) -->

<svg
   width="665.91211"
   height="666.66821"
   viewBox="0 0 176.18924 176.3893"
   version="1.1"
   id="svg1"
   xml:space="preserve"
   xmlns="http://www.w3.org/2000/svg"
   xmlns:svg="http://www.w3.org/2000/svg"><defs
     id="defs1"><linearGradient
       id="linearGradient65"><stop
         style="stop-color:#ebf7ff;stop-opacity:1;"
         offset="0"
         id="stop66" /><stop
         style="stop-color:#ebf7ff;stop-opacity:0;"
         offset="1"
         id="stop67" /></linearGradient></defs><g
     id="layer1"
     transform="translate(4910.2418,-331.61065)"><path
       fill="#c8c8c8"
       d="m -4824.7306,338.19486 c 25.1838,-0.23145 47.7409,9.1983 64.3856,28.40526 31.4556,36.29897 24.5963,93.20095 -15.4793,120.52996 -13.4101,9.1441 -27.4007,13.52704 -43.5906,14.22677 -43.1036,1.72122 -81.7555,-32.24712 -84.1132,-75.51452 -2.5646,-47.06493 31.3689,-85.1125 78.7975,-87.64747 z"
       id="path1-0-4-7-9-0"
       style="fill:none;stroke:#dbdbdb;stroke-width:13.1603;stroke-dasharray:none;stroke-opacity:1" /><g
       style="fill:#dbdbdb;fill-opacity:1;stroke-width:1.00001;stroke-dasharray:none"
       id="g78"
       transform="matrix(0.17135858,0,0,0.17135858,-4908.7861,332.06955)"><path
         d="m 454.83,624.659 v -28.351 c 0,-11.937 0.971,-22.631 2.913,-32.082 1.942,-9.451 4.994,-18.403 9.155,-26.859 4.161,-8.456 9.71,-16.662 16.646,-24.621 6.936,-7.959 15.675,-16.414 26.217,-25.367 l 37.453,-32.082 c 10.542,-8.456 19.559,-17.906 27.049,-28.351 7.49,-10.445 11.236,-23.129 11.236,-38.05 0,-19.398 -6.797,-35.688 -20.391,-48.868 -13.594,-13.18 -32.875,-19.771 -57.844,-19.771 -12.762,0 -24.275,2.114 -34.54,6.342 -10.265,4.228 -19.143,9.948 -26.633,17.16 -7.491,7.212 -13.178,15.543 -17.062,24.994 -3.884,9.451 -6.103,19.149 -6.658,29.097 L 320,389.643 c 3.329,-23.875 10.404,-45.138 21.223,-63.79 10.819,-18.652 24.83,-34.444 42.03,-47.376 17.201,-12.932 36.898,-22.756 59.092,-29.47 22.194,-6.714 46.053,-10.072 71.577,-10.072 23.859,0 46.469,3.109 67.831,9.326 21.362,6.217 40.227,15.419 56.596,27.605 16.368,12.186 29.269,27.232 38.701,45.138 9.432,17.906 14.149,38.548 14.149,61.925 0,15.917 -1.942,29.843 -5.826,41.781 -3.884,11.938 -9.433,22.88 -16.646,32.828 -7.213,9.948 -15.952,19.522 -26.217,28.724 -10.265,9.202 -21.778,18.776 -34.54,28.724 -11.097,8.456 -20.114,15.916 -27.049,22.383 -6.935,6.467 -12.484,12.932 -16.646,19.398 -4.161,6.466 -7.074,13.429 -8.739,20.89 -1.665,7.461 -2.497,16.662 -2.497,27.605 v 19.398 h -98.21 z m -16.645,103.705 c 0,-15.917 6.52,-29.595 19.559,-41.035 13.039,-11.44 28.714,-17.16 47.024,-17.16 17.756,0 33.291,5.471 46.608,16.414 13.317,10.943 19.975,24.372 19.975,40.289 0,15.917 -6.52,29.595 -19.559,41.035 -13.039,11.44 -28.714,17.16 -47.024,17.16 -8.878,0 -17.339,-1.492 -25.385,-4.477 -8.046,-2.985 -15.12,-6.963 -21.223,-11.937 -6.103,-4.974 -10.958,-10.943 -14.565,-17.906 -3.607,-6.963 -5.41,-14.424 -5.41,-22.383 z"
         id="path2-2"
         style="fill:#dbdbdb;fill-opacity:1" /></g></g><style
     type="text/css"
     id="style1">
	.puchipuchi_een{fill:#111918;}
</style></svg>
