<?xml version="1.0" encoding="UTF-8" standalone="no"?>
<!-- Created with Inkscape (http://www.inkscape.org/) -->

<svg
   width="669.39746"
   height="670.15692"
   viewBox="0 0 177.11141 177.31235"
   version="1.1"
   id="svg1"
   xml:space="preserve"
   xmlns="http://www.w3.org/2000/svg"
   xmlns:svg="http://www.w3.org/2000/svg"><defs
     id="defs1"><linearGradient
       id="linearGradient65"><stop
         style="stop-color:#ebf7ff;stop-opacity:1;"
         offset="0"
         id="stop66" /><stop
         style="stop-color:#ebf7ff;stop-opacity:0;"
         offset="1"
         id="stop67" /></linearGradient></defs><g
     id="layer1"
     transform="translate(4124.4913,-331.14895)"><path
       fill="#c8c8c8"
       d="m -4038.5322,337.76766 c 25.3156,-0.23266 47.9908,9.24643 64.7225,28.5539 31.6202,36.4889 24.7251,93.68863 -15.5602,121.16064 -13.4803,9.19195 -27.5441,13.59782 -43.8187,14.30121 -43.3292,1.73023 -82.1833,-32.41585 -84.5534,-75.90965 -2.578,-47.31121 31.5331,-85.55786 79.2098,-88.1061 z"
       id="path1-0-4"
       style="fill:none;stroke:#dbdbdb;stroke-width:13.2292;stroke-dasharray:none;stroke-opacity:1" /><path
       class="puchipuchi_een"
       d="m -4084.7981,445.86532 c 0,3.58275 2.9318,6.51489 6.5149,6.51489 h 84.6956 c 3.583,0 6.5148,-2.93214 6.5148,-6.51489 v -39.0902 h -97.7253 z m 9.7725,-16.28766 h 39.0902 c 1.798,0 3.2576,1.45926 3.2576,3.25731 0,1.79832 -1.4596,3.25787 -3.2576,3.25787 h -39.0902 c -1.7981,0 -3.2576,-1.45955 -3.2576,-3.25787 0,-1.79805 1.4595,-3.25731 3.2576,-3.25731 z m 0,9.77248 h 16.2876 c 1.7981,0 3.2576,1.45955 3.2576,3.25731 0,1.79832 -1.4595,3.25787 -3.2576,3.25787 h -16.2876 c -1.7981,0 -3.2576,-1.45955 -3.2576,-3.25787 0,-1.79776 1.4595,-3.25731 3.2576,-3.25731 z m 87.9528,-45.60509 v 3.25759 h -97.7253 v -3.25759 c 0,-3.58332 2.9318,-6.51489 6.5149,-6.51489 h 84.6956 c 3.583,0 6.5148,2.93157 6.5148,6.51489 z"
       id="path1-4"
       style="fill:#dbdbdb;fill-opacity:1;stroke-width:3.25753;stroke-dasharray:none" /></g><style
     type="text/css"
     id="style1">
	.puchipuchi_een{fill:#111918;}
</style></svg>
