<?xml version="1.0" encoding="UTF-8" standalone="no"?>
<!-- Created with Inkscape (http://www.inkscape.org/) -->

<svg
   width="669.39648"
   height="670.15692"
   viewBox="0 0 177.11115 177.31235"
   version="1.1"
   id="svg1"
   xml:space="preserve"
   xmlns="http://www.w3.org/2000/svg"
   xmlns:svg="http://www.w3.org/2000/svg"><defs
     id="defs1"><linearGradient
       id="linearGradient65"><stop
         style="stop-color:#ebf7ff;stop-opacity:1;"
         offset="0"
         id="stop66" /><stop
         style="stop-color:#ebf7ff;stop-opacity:0;"
         offset="1"
         id="stop67" /></linearGradient></defs><g
     id="layer1"
     transform="translate(4394.483,-331.14926)"><path
       fill="#c8c8c8"
       d="m -4308.5244,337.76794 c 25.3156,-0.23266 47.9908,9.24643 64.7225,28.5539 31.6202,36.4889 24.7251,93.68863 -15.5602,121.16064 -13.4803,9.19195 -27.5441,13.59783 -43.8187,14.30121 -43.3292,1.73023 -82.1833,-32.41585 -84.5534,-75.90965 -2.578,-47.3112 31.5332,-85.55785 79.2098,-88.1061 z"
       id="path1-0"
       style="fill:none;stroke:#dbdbdb;stroke-width:13.2292;stroke-dasharray:none;stroke-opacity:1" /><path
       d="m -4332.6738,377.60125 c 5.9599,-0.10214 8.6639,3.28767 12.4529,7.01995 2.5281,2.49092 5.5573,4.5659 6.4443,8.17872 2.4313,9.90328 -11.8248,12.31505 -9.6715,20.32864 1.8105,6.73734 16.2596,19.6803 22.4774,23.13509 7.8498,4.36189 9.3548,-6.37671 16.848,-8.49254 2.4331,-0.68721 5.4015,-0.40745 7.5954,0.89434 1.651,0.97946 9.4944,8.72634 10.7933,10.44096 3.328,4.39509 1.837,10.57574 -0.7309,14.97963 -3.0079,4.79828 -7.588,7.39362 -13.2809,7.82065 -30.5622,2.29259 -66.06,-33.53264 -68.2226,-62.77858 -0.7445,-10.06501 4.1386,-20.78829 15.2946,-21.52686 z"
       id="path2-91"
       style="fill:#dbdbdb;fill-opacity:1;stroke:#dbf959;stroke-width:0.222514;stroke-dasharray:none;stroke-opacity:1" /></g><style
     type="text/css"
     id="style1">
	.puchipuchi_een{fill:#111918;}
</style></svg>
