<?xml version="1.0" encoding="UTF-8" standalone="no"?>
<svg
   width="165.59668"
   height="215.91994"
   viewBox="0 0 43.81412 57.128817"
   version="1.1"
   xmlns="http://www.w3.org/2000/svg">
  <g transform="translate(-2623.8728,1807.8979)">
    <g
       transform="matrix(0.07747055,0,0,0.07747055,2979.1404,-1694.4754)"
       style="stroke:#ffffff;stroke-width:43.1168;stroke-dasharray:none;stroke-opacity:1">
      <path
         style="fill:none;fill-rule:evenodd;stroke:#ffffff;stroke-width:43.1168;stroke-linecap:round;stroke-linejoin:round;stroke-miterlimit:5;stroke-dasharray:none;stroke-opacity:1;paint-order:stroke fill markers"
         d="m -4564.2786,-1183.6336 v 86.8624 348.55538 c 0,0 204.4819,-1.13737 306.7131,0 81.6669,0.90858 192.7723,-58.75491 201.3408,-129.37842 l -363.8541,-219.17696 z m 0,-258.8803 c 0,0 20.2561,64.7876 69.5876,114.1191 60.7256,60.7256 246.3585,173.395 332.3192,206.5788 1.2587,0.4858 2.5076,1.0546 3.7615,1.5776 a 171.76124,171.76124 0 0 0 86.5873,-148.2926 v -2.2232 a 171.76124,171.76124 0 0 0 -171.7654,-171.7597 z m 0,8e-4 v 208.6336 c 0,1.2692 0.076,2.5483 0.2249,3.8345 -0.151,-1.2862 -0.2249,-2.5653 -0.2249,-3.8345 v 50.2468 l 144.1943,86.8567 363.8596,219.17139 0.033,0.0217 c 17.9955,-42.38281 22.6549,-96.27523 -5.7882,-155.13059 -15.4947,-32.0619 -54.5856,-69.9912 -96.6255,-87.5248 l -0.01,-0.01 c -1.254,-0.5225 -2.5029,-1.0917 -3.7615,-1.5776 -85.9608,-33.1836 -271.588,-145.8476 -332.3137,-206.5731 -49.3314,-49.3315 -69.5932,-114.1192 -69.5932,-114.1192 z" />
    </g>
  </g>
</svg>
