<?xml version="1.0" encoding="UTF-8" standalone="no"?>
<!-- Created with Inkscape (http://www.inkscape.org/) -->

<svg
   width="92.811523"
   height="92.299072"
   viewBox="0 0 24.556381 24.420796"
   version="1.1"
   id="svg1"
   xml:space="preserve"
   inkscape:version="1.3.2 (091e20e, 2023-11-25, custom)"
   sodipodi:docname="Wireframe.svg"
   xmlns:inkscape="http://www.inkscape.org/namespaces/inkscape"
   xmlns:sodipodi="http://sodipodi.sourceforge.net/DTD/sodipodi-0.dtd"
   xmlns="http://www.w3.org/2000/svg"
   xmlns:svg="http://www.w3.org/2000/svg"><sodipodi:namedview
     id="namedview1"
     pagecolor="#ffffff"
     bordercolor="#000000"
     borderopacity="0.25"
     inkscape:showpageshadow="2"
     inkscape:pageopacity="0.0"
     inkscape:pagecheckerboard="true"
     inkscape:deskcolor="#d1d1d1"
     inkscape:document-units="px"
     inkscape:zoom="0.11313709"
     inkscape:cx="-24337.73"
     inkscape:cy="-10814.314"
     inkscape:window-width="1920"
     inkscape:window-height="991"
     inkscape:window-x="-9"
     inkscape:window-y="-9"
     inkscape:window-maximized="1"
     inkscape:current-layer="layer1"
     showguides="true"><sodipodi:guide
       position="4642.77,-731.21456"
       orientation="0,-1"
       id="guide168"
       inkscape:locked="false" /><sodipodi:guide
       position="342.8453,880.70895"
       orientation="1,0"
       id="guide35"
       inkscape:locked="false" /><sodipodi:guide
       position="478.87,880.51815"
       orientation="1,0"
       id="guide36"
       inkscape:locked="false" /><sodipodi:guide
       position="-1871.567,3851.909"
       orientation="0,-1"
       id="guide37"
       inkscape:locked="false" /></sodipodi:namedview><defs
     id="defs1"><linearGradient
       id="linearGradient65"
       inkscape:swatch="gradient"><stop
         style="stop-color:#ebf7ff;stop-opacity:1;"
         offset="0"
         id="stop66" /><stop
         style="stop-color:#ebf7ff;stop-opacity:0;"
         offset="1"
         id="stop67" /></linearGradient></defs><g
     inkscape:label="Calque 1"
     inkscape:groupmode="layer"
     id="layer1"
     transform="translate(2892.3333,972.12535)"><g
       id="g89-8"
       transform="matrix(1.0298441,0,0,1.0298441,-234.41479,67.710238)"><path
         id="path89-6-6-2"
         style="fill:#ffffff;fill-opacity:1;fill-rule:evenodd;stroke:none;stroke-width:2.70384;stroke-linecap:round;stroke-linejoin:round;stroke-miterlimit:5;stroke-dasharray:none;stroke-opacity:1;paint-order:stroke fill markers"
         d="m -2568.962,-1009.7019 a 3.440826,3.440826 0 0 0 -1.7908,0.507 l -8.5472,5.2371 a 3.3380201,3.3380201 0 0 0 -1.5768,3.1839 l 1.1644,11.44643 c 0.188,1.84836 1.8464,3.34782 3.704,3.33862 4.7277,-0.0226 9.2117,-0.0846 14.1947,-0.10615 1.8579,-0.008 3.5051,-1.50733 3.6787,-3.3571 l 1.071,-11.4079 a 3.3512858,3.3512858 0 0 0 -1.5975,-3.1781 l -8.5081,-5.1642 a 3.440826,3.440826 0 0 0 -1.7924,-0.4996 z m -3.0281,19.63352 h 6.0377 c 0.3126,0 0.5656,0.25353 0.5656,0.56611 0,0.31257 -0.253,0.56559 -0.5656,0.56559 h -6.0377 c -0.3126,0 -0.5656,-0.25302 -0.5656,-0.56559 0,-0.31258 0.253,-0.56611 0.5656,-0.56611 z" /></g></g></svg>
