<?xml version="1.0" encoding="UTF-8" standalone="no"?>
<!-- Created with Inkscape (http://www.inkscape.org/) -->

<svg
   width="87.977539"
   height="88.849365"
   viewBox="0 0 23.27739 23.508061"
   version="1.1"
   id="svg1"
   xml:space="preserve"
   inkscape:version="1.3.2 (091e20e, 2023-11-25, custom)"
   sodipodi:docname="Wireframe.svg"
   xmlns:inkscape="http://www.inkscape.org/namespaces/inkscape"
   xmlns:sodipodi="http://sodipodi.sourceforge.net/DTD/sodipodi-0.dtd"
   xmlns="http://www.w3.org/2000/svg"
   xmlns:svg="http://www.w3.org/2000/svg"><sodipodi:namedview
     id="namedview1"
     pagecolor="#ffffff"
     bordercolor="#000000"
     borderopacity="0.25"
     inkscape:showpageshadow="2"
     inkscape:pageopacity="0.0"
     inkscape:pagecheckerboard="true"
     inkscape:deskcolor="#d1d1d1"
     inkscape:document-units="px"
     inkscape:zoom="0.11313709"
     inkscape:cx="-24337.73"
     inkscape:cy="-10814.314"
     inkscape:window-width="1920"
     inkscape:window-height="991"
     inkscape:window-x="-9"
     inkscape:window-y="-9"
     inkscape:window-maximized="1"
     inkscape:current-layer="layer1"
     showguides="true"><sodipodi:guide
       position="4434.0046,-730.7582"
       orientation="0,-1"
       id="guide168"
       inkscape:locked="false" /><sodipodi:guide
       position="134.07992,881.16531"
       orientation="1,0"
       id="guide35"
       inkscape:locked="false" /><sodipodi:guide
       position="270.10462,880.97451"
       orientation="1,0"
       id="guide36"
       inkscape:locked="false" /><sodipodi:guide
       position="-2080.3324,3852.3653"
       orientation="0,-1"
       id="guide37"
       inkscape:locked="false" /></sodipodi:namedview><defs
     id="defs1"><linearGradient
       id="linearGradient65"
       inkscape:swatch="gradient"><stop
         style="stop-color:#ebf7ff;stop-opacity:1;"
         offset="0"
         id="stop66" /><stop
         style="stop-color:#ebf7ff;stop-opacity:0;"
         offset="1"
         id="stop67" /></linearGradient><inkscape:path-effect
       effect="fillet_chamfer"
       id="path-effect87-7-3-6"
       is_visible="true"
       lpeversion="1"
       nodesatellites_param="F,0,0,1,0,3.021141,0,1 @ F,0,1,1,0,3.021141,0,1 @ F,0,0,1,0,0,0,1 @ F,0,0,1,0,0,0,1"
       radius="0"
       unit="px"
       method="auto"
       mode="F"
       chamfer_steps="1"
       flexible="false"
       use_knot_distance="true"
       apply_no_radius="true"
       apply_with_radius="true"
       only_selected="false"
       hide_knots="false" /></defs><g
     inkscape:label="Calque 1"
     inkscape:groupmode="layer"
     id="layer1"
     transform="translate(2683.5679,971.66899)"><g
       id="g89-8"
       transform="matrix(1.0298441,0,0,1.0298441,-234.41479,67.710238)"><g
         style="fill:none"
         id="g80-7-2-8-7"
         transform="matrix(1.2152871,0,0,1.2152871,-2425.8818,-970.23189)"><path
           fill-rule="evenodd"
           clip-rule="evenodd"
           d="m 48.552044,-23.471733 c 2.1468,0 3.8997,-1.7596 3.8997,-3.94579 0,-2.18618 -1.7529,-3.94577 -3.8997,-3.94577 -2.14679,0 -3.89969,1.75959 -3.89969,3.94577 0,2.18619 1.7529,3.94579 3.89969,3.94579 z m 0,0.75 c 2.568,0 4.6497,-2.1024 4.6497,-4.69579 0,-2.5934 -2.0817,-4.69577 -4.6497,-4.69577 -2.56796,0 -4.64969,2.10237 -4.64969,4.69577 0,2.59339 2.08173,4.69579 4.64969,4.69579 z m 6.0446,2.6283 h -12.08919 c -1.38336,0 -2.50479,1.1214 -2.50479,2.5047 v 2.3986 c 0,0.613 0.49691,1.1099 1.10988,1.1099 h 14.879 c 0.613,0 1.1099,-0.4969 1.1099,-1.1099 v -2.3985 c 0,-1.3834 -1.1214,-2.5048 -2.5048,-2.5048 z m -12.08919,-0.75 c -1.79757,0 -3.25479,1.4572 -3.25479,3.2547 v 2.3986 c 0,1.0272 0.8327,1.8599 1.85988,1.8599 h 14.879 c 1.0272,0 1.8599,-0.8327 1.8599,-1.8599 v -2.3985 c 0,-1.7976 -1.4572,-3.2548 -3.2548,-3.2548 z"
           fill="#000000"
           id="path1-1-4-0-4-1"
           sodipodi:nodetypes="ssssssssssssssssssssssssssss"
           style="fill:#ffffff;fill-opacity:1" /><ellipse
           style="fill:#ffffff;fill-opacity:1;fill-rule:evenodd;stroke:none;stroke-width:2.73289;stroke-linecap:round;stroke-linejoin:round;stroke-miterlimit:5;stroke-dasharray:none;stroke-opacity:1;paint-order:stroke fill markers"
           id="path86-3-8-6"
           cx="48.552055"
           cy="-27.371836"
           rx="4.2555776"
           ry="4.0504403" /><path
           style="fill:#ffffff;fill-opacity:1;fill-rule:evenodd;stroke:none;stroke-width:2.17713;stroke-linecap:round;stroke-linejoin:round;stroke-miterlimit:5;stroke-dasharray:none;stroke-opacity:1;paint-order:stroke fill markers"
           d="m 42.507454,-20.405925 h 11.902027 a 3.021141,3.021141 45 0 1 3.021141,3.021141 v 3.372904 H 39.673328 l -0.09869,-3.374195 a 2.9340697,2.9340697 134.16234 0 1 2.932816,-3.01985 z"
           id="path87-5-6-5"
           inkscape:path-effect="#path-effect87-7-3-6"
           inkscape:original-d="m 39.486313,-20.405925 h 17.944309 v 6.394045 H 39.673328 Z" /></g></g></g></svg>
