<?xml version="1.0" encoding="UTF-8" standalone="no"?>
<!-- Created with Inkscape (http://www.inkscape.org/) -->

<svg
   width="98.416992"
   height="101.4375"
   viewBox="0 0 26.039495 26.838672"
   version="1.1"
   id="svg1"
   xml:space="preserve"
   xmlns="http://www.w3.org/2000/svg"
   xmlns:svg="http://www.w3.org/2000/svg"><defs
     id="defs1"><linearGradient
       id="linearGradient65"><stop
         style="stop-color:#ebf7ff;stop-opacity:1;"
         offset="0"
         id="stop66" /><stop
         style="stop-color:#ebf7ff;stop-opacity:0;"
         offset="1"
         id="stop67" /></linearGradient></defs><g
     id="layer1"
     transform="translate(3299.5013,-1572.9406)"><rect
       style="fill:#1c96ff;fill-opacity:1;fill-rule:evenodd;stroke:none;stroke-width:4.35213;stroke-linecap:round;stroke-linejoin:round;stroke-miterlimit:5;stroke-dasharray:none;stroke-opacity:1;paint-order:stroke fill markers"
       id="rect84-6-9"
       width="20.954939"
       height="21.794846"
       x="-3294.4165"
       y="1577.9845"
       rx="2.7564363"
       ry="2.7564363" /><rect
       style="fill:#00ffff;fill-opacity:1;fill-rule:evenodd;stroke:none;stroke-width:4.35213;stroke-linecap:round;stroke-linejoin:round;stroke-miterlimit:5;stroke-dasharray:none;stroke-opacity:1;paint-order:stroke fill markers"
       id="rect84-7"
       width="20.954939"
       height="21.794846"
       x="-3296.8442"
       y="1575.4628"
       rx="2.7564363"
       ry="2.7564363" /><path
       d="m -3281.2608,1572.9407 c 1.5039,0 2.7145,1.2107 2.7145,2.7146 v 16.3657 c 0,1.5038 -1.2106,2.7146 -2.7145,2.7146 h -15.5258 c -1.5039,0 -2.7146,-1.2108 -2.7146,-2.7146 v -12.7315 h 4.3261 c 1.0005,0 1.8116,-0.811 1.8116,-1.8115 v -4.5373 z"
       style="fill:#1c96ff;fill-opacity:1;fill-rule:evenodd;stroke-width:3.93864;stroke-linecap:round;stroke-linejoin:round;stroke-miterlimit:5;paint-order:stroke fill markers"
       id="path84-8-1" /><rect
       style="fill:#00ffff;fill-opacity:1;fill-rule:evenodd;stroke:none;stroke-width:2.00702;stroke-linecap:round;stroke-linejoin:round;stroke-miterlimit:5;stroke-dasharray:none;stroke-opacity:1;paint-order:stroke fill markers"
       id="rect81-4-3-8"
       width="13.637534"
       height="1.9606678"
       x="-3295.8425"
       y="1583.484"
       rx="0.98033392"
       ry="0.98033392" /><path
       id="rect81-5-0-3-4-8"
       style="fill:#00ffff;fill-opacity:1;fill-rule:evenodd;stroke-width:2.00702;stroke-linecap:round;stroke-linejoin:round;stroke-miterlimit:5;paint-order:stroke fill markers"
       d="m -3294.8621,1587.2931 h 7.5775 c 0.5431,0 0.9803,0.4372 0.9803,0.9804 0,0.5431 -0.4372,0.9803 -0.9803,0.9803 h -7.5775 c -0.5431,0 -0.9804,-0.4372 -0.9804,-0.9803 0,-0.5432 0.4373,-0.9804 0.9804,-0.9804 z" /><path
       style="fill:#00ffff;fill-opacity:1;fill-rule:evenodd;stroke:none;stroke-width:13.2292;stroke-linecap:round;stroke-linejoin:round;stroke-miterlimit:5;stroke-dasharray:none;stroke-opacity:1;paint-order:stroke fill markers"
       d="m -3417.6724,1127.1643 23.6345,24.4474 h -16.6587 a 6.9757937,6.9757937 45 0 1 -6.9758,-6.9758 z"
       id="path83-5-4-7"
       transform="matrix(-0.25968786,0,0,0.25968786,-4180.8916,1280.23)" /></g><style
     type="text/css"
     id="style1">
	.puchipuchi_een{fill:#111918;}
</style></svg>
