<?xml version="1.0" encoding="UTF-8" standalone="no"?>
<!-- Created with Inkscape (http://www.inkscape.org/) -->

<svg
   width="93.235344"
   height="109.1499"
   viewBox="0 0 24.668517 28.879245"
   version="1.1"
   id="svg1"
   xml:space="preserve"
   xmlns="http://www.w3.org/2000/svg"
   xmlns:svg="http://www.w3.org/2000/svg"><defs
     id="defs1"><linearGradient
       id="linearGradient65"><stop
         style="stop-color:#ebf7ff;stop-opacity:1;"
         offset="0"
         id="stop66" /><stop
         style="stop-color:#ebf7ff;stop-opacity:0;"
         offset="1"
         id="stop67" /></linearGradient></defs><g
     id="layer1"
     transform="translate(3248.3987,-1573.4112)"><path
       id="rect80-7-2-2"
       style="fill:#00ffff;fill-opacity:1;fill-rule:evenodd;stroke-width:3.77783;stroke-linecap:round;stroke-linejoin:round;stroke-miterlimit:5;paint-order:stroke fill markers"
       d="m -3245.795,1577.1508 h 14.892 c 1.4424,0 2.6036,1.1613 2.6036,2.6037 v 19.9325 c 0,1.4424 -1.1612,2.6036 -2.6036,2.6036 h -14.892 c -1.4425,0 -2.6037,-1.1612 -2.6037,-2.6036 v -19.9325 c 0,-1.4424 1.1612,-2.6037 2.6037,-2.6037 z" /><path
       d="m -3241.2261,1573.4113 c -1.4425,0 -2.6037,1.1613 -2.6037,2.6037 v 19.9209 c 0,1.4424 1.1612,2.6037 2.6037,2.6037 h 14.892 c 1.4424,0 2.6037,-1.1613 2.6037,-2.6037 v -16.435 h -4.1495 c -0.9596,0 -1.7376,-0.7779 -1.7376,-1.7376 v -4.352 z"
       style="fill:#1c96ff;fill-rule:evenodd;stroke-width:3.77783;stroke-linecap:round;stroke-linejoin:round;stroke-miterlimit:5;paint-order:stroke fill markers"
       id="path84-7-8" /><rect
       style="fill:#00ffff;fill-opacity:1;fill-rule:evenodd;stroke:none;stroke-width:1.92508;stroke-linecap:round;stroke-linejoin:round;stroke-miterlimit:5;stroke-dasharray:none;stroke-opacity:1;paint-order:stroke fill markers"
       id="rect81-4-0-4"
       width="13.080757"
       height="1.8806199"
       x="-3240.3208"
       y="1584.4644"
       rx="0.94030994"
       ry="0.94030994" /><rect
       style="fill:#00ffff;fill-opacity:1;fill-rule:evenodd;stroke:none;stroke-width:1.92508;stroke-linecap:round;stroke-linejoin:round;stroke-miterlimit:5;stroke-dasharray:none;stroke-opacity:1;paint-order:stroke fill markers"
       id="rect81-5-9-4-0"
       width="13.080757"
       height="1.8806199"
       x="-3240.3208"
       y="1588.4877"
       rx="0.94030994"
       ry="0.94030994" /><path
       id="rect81-5-0-3-53-9"
       style="fill:#00ffff;fill-rule:evenodd;stroke-width:1.92508;stroke-linecap:round;stroke-linejoin:round;stroke-miterlimit:5;paint-order:stroke fill markers"
       d="m -3239.3801,1592.5107 h 7.2681 c 0.5209,0 0.9403,0.4194 0.9403,0.9404 0,0.5209 -0.4194,0.9403 -0.9403,0.9403 h -7.2681 c -0.521,0 -0.9404,-0.4194 -0.9404,-0.9403 0,-0.521 0.4194,-0.9404 0.9404,-0.9404 z" /><path
       style="fill:#00ffff;fill-opacity:1;fill-rule:evenodd;stroke:none;stroke-width:13.2292;stroke-linecap:round;stroke-linejoin:round;stroke-miterlimit:5;stroke-dasharray:none;stroke-opacity:1;paint-order:stroke fill markers"
       d="m -3417.6724,1127.1643 23.6345,24.4474 h -16.6587 a 6.9757937,6.9757937 45 0 1 -6.9758,-6.9758 z"
       id="path83-5-9-8"
       transform="matrix(0.24908562,0,0,0.24908562,-2378.3245,1292.651)" /></g><style
     type="text/css"
     id="style1">
	.puchipuchi_een{fill:#111918;}
</style></svg>
