<?xml version="1.0" encoding="UTF-8" standalone="no"?>
<!-- Created with Inkscape (http://www.inkscape.org/) -->

<svg
   width="78.930664"
   height="114.64453"
   viewBox="0 0 20.883737 30.333032"
   version="1.1"
   id="svg1"
   xml:space="preserve"
   xmlns="http://www.w3.org/2000/svg"
   xmlns:svg="http://www.w3.org/2000/svg"><defs
     id="defs1"><linearGradient
       id="linearGradient65"><stop
         style="stop-color:#ebf7ff;stop-opacity:1;"
         offset="0"
         id="stop66" /><stop
         style="stop-color:#ebf7ff;stop-opacity:0;"
         offset="1"
         id="stop67" /></linearGradient></defs><g
     id="layer1"
     transform="translate(3209.2732,-1569.4463)"><path
       style="fill:#00ffff;fill-opacity:1;stroke-width:0.0811981"
       d="m -3199.8066,1580.1769 c 0.061,-0.2699 0.061,-0.3028 0.061,-3.9673 0,-3.9806 0.011,-3.7916 -0.1507,-4.1965 -0.3459,-0.8895 -1.3074,-1.4702 -2.2309,-1.3474 -0.5352,0.071 -0.8829,0.2417 -1.2569,0.6161 -0.2886,0.289 -0.4346,0.5167 -0.5515,0.8603 l -0.078,0.2291 -0.011,3.3495 c -0.011,3.7237 -0.02,3.4794 0.1869,3.7522 0.071,0.093 0.1703,0.1756 0.2934,0.2434 0.1727,0.094 0.2039,0.102 0.4297,0.102 0.2222,0 0.2594,-0.011 0.4246,-0.098 0.1958,-0.1051 0.3139,-0.2285 0.4141,-0.4312 l 0.064,-0.1289 0.015,-3.1079 0.015,-3.108 0.071,-0.1276 c 0.039,-0.07 0.1275,-0.1668 0.1957,-0.2148 0.1084,-0.077 0.1484,-0.087 0.3172,-0.087 0.1648,-10e-5 0.2136,0.013 0.332,0.086 0.091,0.056 0.1618,0.1292 0.2062,0.2133 l 0.067,0.1274 -0.011,3.1955 -0.011,3.1955 -0.078,0.2291 c -0.1041,0.3051 -0.2553,0.5568 -0.4773,0.7937 -0.3154,0.3367 -0.6832,0.5444 -1.1266,0.6359 -1.1056,0.2284 -2.2098,-0.4691 -2.4864,-1.5703 -0.055,-0.2196 -0.057,-0.3295 -0.057,-3.6011 0,-3.2058 0,-3.3884 0.055,-3.6548 0.3701,-1.8944 2.2533,-3.0904 4.1159,-2.614 0.6089,0.1557 1.0563,0.4156 1.5287,0.888 0.5847,0.5846 0.8822,1.2008 0.9729,2.0147 0.041,0.373 0.041,7.0615 0,7.4701 z"
       id="path262240-3" /><path
       id="rect80-7-9-4"
       style="fill:#1c96ff;fill-opacity:1;fill-rule:evenodd;stroke-width:3.92523;stroke-linecap:round;stroke-linejoin:round;stroke-miterlimit:5;paint-order:stroke fill markers"
       d="m -3206.568,1573.6586 h 13.5721 c 0,0 4.6063,4.6419 4.6063,4.6064 v 18.809 c 0,1.4988 -1.2066,2.7053 -2.7053,2.7053 h -15.4731 c -1.4987,0 -2.7052,-1.2065 -2.7052,-2.7053 v -20.7102 c 0,-1.4986 1.2065,-2.7052 2.7052,-2.7052 z" /><rect
       style="fill:#00ffff;fill-opacity:1;fill-rule:evenodd;stroke:none;stroke-width:2.0002;stroke-linecap:round;stroke-linejoin:round;stroke-miterlimit:5;stroke-dasharray:none;stroke-opacity:1;paint-order:stroke fill markers"
       id="rect81-4-36-9"
       width="13.591136"
       height="1.9539971"
       x="-3205.8984"
       y="1584.2119"
       rx="0.97699857"
       ry="0.97699857" /><rect
       style="fill:#00ffff;fill-opacity:1;fill-rule:evenodd;stroke:none;stroke-width:2.0002;stroke-linecap:round;stroke-linejoin:round;stroke-miterlimit:5;stroke-dasharray:none;stroke-opacity:1;paint-order:stroke fill markers"
       id="rect81-5-9-0-7"
       width="13.591136"
       height="1.9539971"
       x="-3205.8984"
       y="1588.3921"
       rx="0.97699857"
       ry="0.97699857" /><path
       id="rect81-5-0-3-5-8"
       style="fill:#00ffff;fill-opacity:1;fill-rule:evenodd;stroke-width:2.0002;stroke-linecap:round;stroke-linejoin:round;stroke-miterlimit:5;paint-order:stroke fill markers"
       d="m -3204.9214,1592.5723 h 7.5518 c 0.5413,0 0.977,0.4358 0.977,0.9771 0,0.5411 -0.4357,0.9769 -0.977,0.9769 h -7.5518 c -0.5412,0 -0.977,-0.4358 -0.977,-0.9769 0,-0.5413 0.4358,-0.9771 0.977,-0.9771 z" /><path
       d="m -3203.934,1572.1583 -0.078,0.2291 -0.011,3.3476 c -0.011,3.7218 -0.02,3.4775 0.1868,3.7502 0.071,0.093 0.1703,0.1756 0.2933,0.2433 0.1726,0.095 0.2038,0.102 0.4295,0.102 0.2219,0 0.2592,-0.011 0.4244,-0.098 0.1956,-0.1051 0.3136,-0.2283 0.4137,-0.4309 l 0.064,-0.1288 0.015,-3.1063 0.015,-3.1063 0.071,-0.1276 c 0.039,-0.07 0.1274,-0.1667 0.1955,-0.2146 0.1083,-0.076 0.1483,-0.087 0.317,-0.087 0.1647,0 0.2135,0.013 0.332,0.086 0.091,0.056 0.1614,0.129 0.206,0.2131 l 0.067,0.1274 -0.011,3.1937 -0.011,3.1937 -0.077,0.229 c -0.1041,0.3049 -0.2551,0.5565 -0.4768,0.7932 -0.3153,0.3366 -0.6829,0.5441 -1.1261,0.6357 -1.105,0.2282 -2.2087,-0.4689 -2.485,-1.5694 -0.055,-0.2196 -0.056,-0.3295 -0.056,-3.5992 0,-3.2042 0,-3.3867 0.055,-3.6528"
       style="fill:#00ffff;fill-opacity:1;stroke-width:0.447977"
       id="path1-56-5" /></g><style
     type="text/css"
     id="style1">
	.puchipuchi_een{fill:#111918;}
</style></svg>
