<?xml version="1.0" encoding="UTF-8" standalone="no"?>
<!-- Created with Inkscape (http://www.inkscape.org/) -->

<svg
   width="369.35547"
   height="246.23631"
   viewBox="0 0 97.725298 65.150024"
   version="1.1"
   id="svg1"
   xml:space="preserve"
   xmlns="http://www.w3.org/2000/svg"
   xmlns:svg="http://www.w3.org/2000/svg"><defs
     id="defs1"><linearGradient
       id="linearGradient65"><stop
         style="stop-color:#ebf7ff;stop-opacity:1;"
         offset="0"
         id="stop66" /><stop
         style="stop-color:#ebf7ff;stop-opacity:0;"
         offset="1"
         id="stop67" /></linearGradient></defs><g
     id="layer1"
     transform="translate(4084.7982,-583.54186)"><path
       class="puchipuchi_een"
       d="m -4084.7981,642.17704 c 0,3.58275 2.9318,6.51489 6.5149,6.51489 h 84.6956 c 3.583,0 6.5148,-2.93214 6.5148,-6.51489 v -39.0902 h -97.7253 z m 9.7725,-16.28766 h 39.0902 c 1.798,0 3.2576,1.45926 3.2576,3.25731 0,1.79832 -1.4596,3.25787 -3.2576,3.25787 h -39.0902 c -1.7981,0 -3.2576,-1.45955 -3.2576,-3.25787 0,-1.79805 1.4595,-3.25731 3.2576,-3.25731 z m 0,9.77248 h 16.2876 c 1.7981,0 3.2576,1.45955 3.2576,3.25731 0,1.79832 -1.4595,3.25787 -3.2576,3.25787 h -16.2876 c -1.7981,0 -3.2576,-1.45955 -3.2576,-3.25787 0,-1.79776 1.4595,-3.25731 3.2576,-3.25731 z m 87.9528,-45.60509 v 3.25759 h -97.7253 v -3.25759 c 0,-3.58332 2.9318,-6.51489 6.5149,-6.51489 h 84.6956 c 3.583,0 6.5148,2.93157 6.5148,6.51489 z"
       id="path1-4-2"
       style="fill:#dbdbdb;fill-opacity:1;stroke-width:3.25753;stroke-dasharray:none" /></g><style
     type="text/css"
     id="style1">
	.puchipuchi_een{fill:#111918;}
</style></svg>
