<?xml version="1.0" encoding="UTF-8" standalone="no"?>
<!-- Created with Inkscape (http://www.inkscape.org/) -->

<svg
   width="131.09375"
   height="144.40233"
   viewBox="0 0 34.685221 38.20645"
   version="1.1"
   id="svg1"
   xml:space="preserve"
   xmlns="http://www.w3.org/2000/svg"
   xmlns:svg="http://www.w3.org/2000/svg"><defs
     id="defs1"><linearGradient
       id="linearGradient65"><stop
         style="stop-color:#ebf7ff;stop-opacity:1;"
         offset="0"
         id="stop66" /><stop
         style="stop-color:#ebf7ff;stop-opacity:0;"
         offset="1"
         id="stop67" /></linearGradient></defs><g
     id="layer1"
     transform="translate(6948.2227,7870.0311)"><g
       id="g111"
       transform="translate(842.66024,-566.5953)"><rect
         style="fill:#ebf7ff;fill-opacity:1;fill-rule:evenodd;stroke:none;stroke-width:0.903233;stroke-linecap:round;stroke-miterlimit:5;stroke-dasharray:none;stroke-opacity:1;paint-order:stroke fill markers"
         id="rect9-7-55-9-4-4-3-59-6"
         width="66.022476"
         height="18.273834"
         x="-7943.3838"
         y="-7308.0586"
         rx="8.2263298"
         ry="9.1369171" /><g
         style="fill:#0079d2;fill-opacity:1;stroke:#0079d2;stroke-width:2;stroke-linecap:round;stroke-linejoin:round;stroke-opacity:1"
         id="g2-1"
         transform="matrix(0.41496405,0,0,0.41496405,-7933.9574,-7304.4298)"><path
           d="M 4,14 A 1,1 0 0 1 3.22,12.37 l 9.9,-10.2 a 0.5,0.5 0 0 1 0.86,0.46 L 12.06,8.65 A 1,1 0 0 0 13,10 h 7 a 1,1 0 0 1 0.78,1.63 l -9.9,10.2 a 0.5,0.5 0 0 1 -0.86,-0.46 l 1.92,-6.02 A 1,1 0 0 0 11,14 Z"
           id="path1-1-22"
           style="fill:#0079d2;fill-opacity:1;stroke:#0079d2;stroke-opacity:1" /></g><g
         style="fill:#0079d2;fill-opacity:1;stroke:#0079d2;stroke-width:2;stroke-linecap:round;stroke-linejoin:round;stroke-opacity:1"
         id="g2-1-8"
         transform="matrix(0.41496405,0,0,0.41496405,-7791.7229,-7303.8555)"><path
           id="path1-1-22-3"
           style="fill:#0079d2;fill-opacity:1;stroke:#0079d2;stroke-width:8.37867;stroke-opacity:1"
           d="M 10.302143,55.42561 A 4.1893343,4.1893343 0 0 1 7.0344624,48.596995 L 48.508872,5.8657843 A 2.0946672,2.0946672 0 0 1 52.1117,7.7928781 L 44.068178,33.012671 a 4.1893343,4.1893343 0 0 0 3.937974,5.655601 h 29.325341 a 4.1893343,4.1893343 0 0 1 3.26768,6.828615 L 39.124764,88.228097 A 2.0946672,2.0946672 0 0 1 35.521936,86.301004 L 43.565458,61.081211 A 4.1893343,4.1893343 0 0 0 39.627484,55.42561 Z" /></g><text
         xml:space="preserve"
         style="font-style:normal;font-variant:normal;font-weight:500;font-stretch:normal;font-size:8.74104px;line-height:3.34319px;font-family:'Creato Display';-inkscape-font-specification:'Creato Display, Medium';font-variant-ligatures:normal;font-variant-caps:normal;font-variant-numeric:normal;font-variant-east-asian:normal;text-align:center;letter-spacing:0px;word-spacing:0px;text-anchor:middle;fill:#0079d2;fill-opacity:1;fill-rule:evenodd;stroke:none;stroke-width:0.314101;stroke-linecap:round;stroke-miterlimit:5;stroke-dasharray:none;stroke-opacity:1;paint-order:stroke fill markers"
         x="-7902.0103"
         y="-7296.6357"
         id="text11-5-6-0-6-3-0-6-1"><tspan
           id="tspan11-2-1-1-4-6-21-0-9"
           style="fill:#0079d2;fill-opacity:1;stroke-width:0.314101"
           x="-7902.0103"
           y="-7296.6357">premium</tspan></text></g></g><style
     type="text/css"
     id="style1">
	.puchipuchi_een{fill:#111918;}
</style></svg>
