<?xml version="1.0" encoding="UTF-8" standalone="no"?>
<!-- Created with Inkscape (http://www.inkscape.org/) -->

<svg
   width="62.999996"
   height="55.089844"
   viewBox="0 0 16.668748 14.575854"
   version="1.1"
   id="svg1"
   xml:space="preserve"
   xmlns="http://www.w3.org/2000/svg"
   xmlns:svg="http://www.w3.org/2000/svg"><defs
     id="defs1"><linearGradient
       id="linearGradient65"><stop
         style="stop-color:#ebf7ff;stop-opacity:1;"
         offset="0"
         id="stop66" /><stop
         style="stop-color:#ebf7ff;stop-opacity:0;"
         offset="1"
         id="stop67" /></linearGradient></defs><g
     id="layer1"
     transform="translate(15744.652,12459.327)"><rect
       style="fill:#d0e9ff;fill-opacity:1;fill-rule:evenodd;stroke-width:20.1314;stroke-linecap:round;stroke-miterlimit:5;paint-order:stroke fill markers"
       id="rect1-1-42-2-0-9-7-8-5-6-6-2-01-4"
       width="128.87512"
       height="47.975407"
       x="-15761.494"
       y="-12474.938"
       rx="7.3746958"
       ry="7.3746958" /><circle
       style="fill:#f9f9f9;fill-opacity:1;fill-rule:evenodd;stroke:none;stroke-width:0.529167;stroke-linecap:round;stroke-linejoin:round;stroke-miterlimit:5;stroke-dasharray:none;stroke-dashoffset:0;stroke-opacity:1;paint-order:stroke fill markers"
       id="path118-7-6"
       cx="-15735.139"
       cy="-12450.951"
       r="13.849282" /><path
       d="m -15738.132,-12459.327 c -0.837,0 -1.511,0.673 -1.511,1.51 v 11.556 c 0,0.837 0.674,1.51 1.511,1.51 h 8.638 c 0.836,0 1.51,-0.673 1.51,-1.51 v -9.534 h -2.406 c -0.558,0 -1.008,-0.451 -1.008,-1.008 v -2.524 z"
       style="fill:#1c96ff;fill-rule:evenodd;stroke-width:3.77783;stroke-linecap:round;stroke-linejoin:round;stroke-miterlimit:5;paint-order:stroke fill markers"
       id="path84-7-8-8-1-8-7-3" /><rect
       style="fill:#88e3ff;fill-opacity:1;fill-rule:evenodd;stroke:none;stroke-width:1.92508;stroke-linecap:round;stroke-linejoin:round;stroke-miterlimit:5;stroke-dasharray:none;stroke-opacity:1;paint-order:stroke fill markers"
       id="rect81-4-0-4-4-2-5-4-9"
       width="4.5591035"
       height="1.0909226"
       x="-15734.578"
       y="-12452.916"
       rx="0.5454613"
       ry="0.5454613" /><rect
       style="fill:#88e3ff;fill-opacity:1;fill-rule:evenodd;stroke:none;stroke-width:1.92508;stroke-linecap:round;stroke-linejoin:round;stroke-miterlimit:5;stroke-dasharray:none;stroke-opacity:1;paint-order:stroke fill markers"
       id="rect81-5-9-4-0-0-1-9-2-2"
       width="4.5586767"
       height="1.0909226"
       x="-15734.578"
       y="-12450.582"
       rx="0.5454613"
       ry="0.5454613" /><rect
       style="fill:#88e3ff;fill-opacity:1;fill-rule:evenodd;stroke:none;stroke-width:1.92508;stroke-linecap:round;stroke-linejoin:round;stroke-miterlimit:5;stroke-dasharray:none;stroke-opacity:1;paint-order:stroke fill markers"
       id="rect81-5-9-4-0-0-1-9-2-2-2"
       width="2.7241633"
       height="1.0909226"
       x="-15734.578"
       y="-12448.444"
       rx="0.5454613"
       ry="0.5454613" /><path
       style="fill:#88e3ff;fill-opacity:1;fill-rule:evenodd;stroke:none;stroke-width:22.8056;stroke-linecap:round;stroke-linejoin:round;stroke-miterlimit:5;stroke-dasharray:none;stroke-opacity:1;paint-order:stroke fill markers"
       d="m -3417.6724,1127.1643 23.6345,24.4474 h -16.6587 a 6.9757937,6.9757937 45 0 1 -6.9758,-6.9758 z"
       id="path83-5-9-8-8-6-0-9-6"
       transform="matrix(0.14449126,0,0,0.14449126,-15237.574,-12622.193)" /><path
       id="path30"
       style="opacity:1;fill:#88e3ff;fill-opacity:1;fill-rule:evenodd;stroke:none;stroke-width:0.417089;stroke-linecap:round;stroke-linejoin:round;stroke-miterlimit:5;paint-order:stroke fill markers"
       transform="matrix(-1.0987387,-0.63435711,0.63435711,-1.0987387,-25160.208,-36168.245)"
       d="m -15775.355,-12473.631 -3.936,-1.348 a 1.2935153,1.2935153 60.000272 0 1 -0.851,-1.473 l 0.802,-4.083 a 0.69064915,0.69064915 170.55505 0 1 1.276,-0.212 l 3.531,6.117 a 0.69070674,0.69070674 129.44707 0 1 -0.822,0.999 z" /><path
       id="path30-0"
       style="fill:#1c96ff;fill-opacity:1;fill-rule:evenodd;stroke:none;stroke-width:0.417089;stroke-linecap:round;stroke-linejoin:round;stroke-miterlimit:5;paint-order:stroke fill markers"
       transform="matrix(-1.0987387,-0.63435711,0.63435711,-1.0987387,-25163.37,-36168.245)"
       d="m -15775.355,-12473.631 -3.936,-1.348 a 1.2935153,1.2935153 60.000272 0 1 -0.851,-1.473 l 0.802,-4.083 a 0.69064915,0.69064915 170.55505 0 1 1.276,-0.212 l 3.531,6.117 a 0.69070674,0.69070674 129.44707 0 1 -0.822,0.999 z" /></g><style
     type="text/css"
     id="style1">
	.puchipuchi_een{fill:#111918;}
</style></svg>
