<?xml version="1.0" encoding="UTF-8" standalone="no"?>
<!-- Created with Inkscape (http://www.inkscape.org/) -->

<svg
   width="63.488277"
   height="65.332031"
   viewBox="0 0 16.797939 17.285767"
   version="1.1"
   id="svg1"
   xml:space="preserve"
   xmlns="http://www.w3.org/2000/svg"
   xmlns:svg="http://www.w3.org/2000/svg"><defs
     id="defs1"><linearGradient
       id="linearGradient65"><stop
         style="stop-color:#ebf7ff;stop-opacity:1;"
         offset="0"
         id="stop66" /><stop
         style="stop-color:#ebf7ff;stop-opacity:0;"
         offset="1"
         id="stop67" /></linearGradient></defs><g
     id="layer1"
     transform="translate(15606.687,12458.771)"><rect
       style="fill:#ffeeb7;fill-opacity:1;fill-rule:evenodd;stroke-width:20.1314;stroke-linecap:round;stroke-miterlimit:5;paint-order:stroke fill markers"
       id="rect1-1-42-2-0-9-7-8-5-6-6-2-0-2-2"
       width="128.87512"
       height="47.975407"
       x="-15625.455"
       y="-12474.938"
       rx="7.3746958"
       ry="7.3746958" /><circle
       style="fill:#ffffe5;fill-opacity:1;fill-rule:evenodd;stroke:none;stroke-width:0.529167;stroke-linecap:round;stroke-linejoin:round;stroke-miterlimit:5;stroke-dasharray:none;stroke-dashoffset:0;stroke-opacity:1;paint-order:stroke fill markers"
       id="path118-2-9-9"
       cx="-15599.099"
       cy="-12450.951"
       r="13.849282" /><path
       d="m -15596.057,-12458.771 c 0.877,0 1.582,0.706 1.582,1.582 v 9.537 c 0,0.877 -0.705,1.582 -1.582,1.582 h -9.048 c -0.876,0 -1.582,-0.705 -1.582,-1.582 v -7.419 h 2.521 c 0.584,0 1.056,-0.473 1.056,-1.056 v -2.644 z"
       style="fill:#ffbd2a;fill-opacity:1;fill-rule:evenodd;stroke-width:3.93864;stroke-linecap:round;stroke-linejoin:round;stroke-miterlimit:5;paint-order:stroke fill markers"
       id="path84-8-1-2-0-5-0-1" /><rect
       style="fill:#ffe691;fill-opacity:1;fill-rule:evenodd;stroke:none;stroke-width:2.00702;stroke-linecap:round;stroke-linejoin:round;stroke-miterlimit:5;stroke-dasharray:none;stroke-opacity:1;paint-order:stroke fill markers"
       id="rect81-4-3-8-9-7-1-7-8"
       width="7.9473472"
       height="1.1425898"
       x="-15604.555"
       y="-12452.627"
       rx="0.5712949"
       ry="0.5712949" /><path
       id="rect81-5-0-3-4-8-8-2-7-5-6"
       style="fill:#ffe691;fill-opacity:1;fill-rule:evenodd;stroke-width:2.00702;stroke-linecap:round;stroke-linejoin:round;stroke-miterlimit:5;paint-order:stroke fill markers"
       d="m -15603.983,-12450.407 h 4.416 c 0.316,0 0.571,0.255 0.571,0.571 0,0.317 -0.255,0.572 -0.571,0.572 h -4.416 c -0.317,0 -0.571,-0.255 -0.571,-0.572 0,-0.316 0.254,-0.571 0.571,-0.571 z" /><path
       style="fill:#ffe691;fill-opacity:1;fill-rule:evenodd;stroke:none;stroke-width:22.7012;stroke-linecap:round;stroke-linejoin:round;stroke-miterlimit:5;stroke-dasharray:none;stroke-opacity:1;paint-order:stroke fill markers"
       d="m -3417.6724,1127.1643 23.6345,24.4474 h -16.6587 a 6.9757937,6.9757937 45 0 1 -6.9758,-6.9758 z"
       id="path83-5-4-7-7-7-0-6-3"
       transform="matrix(-0.15133451,0,0,0.15133451,-16120.322,-12629.35)" /><circle
       style="fill:#ffe691;fill-opacity:1;fill-rule:evenodd;stroke:none;stroke-width:0.529166;stroke-linecap:round;stroke-linejoin:round;stroke-miterlimit:5;paint-order:stroke fill markers"
       id="path31"
       cx="-15594.475"
       cy="-12446.07"
       r="4.5853801" /><path
       style="opacity:1;fill:#ffe691;fill-opacity:1;fill-rule:evenodd;stroke:#ffbd2a;stroke-width:1.32292;stroke-linecap:round;stroke-linejoin:round;stroke-miterlimit:5;stroke-dasharray:none;stroke-opacity:1;paint-order:stroke fill markers"
       d="m -15594.475,-12447.951 v 3.761"
       id="path32" /><path
       style="fill:#ffe691;fill-opacity:1;fill-rule:evenodd;stroke:#ffbd2a;stroke-width:1.32292;stroke-linecap:round;stroke-linejoin:round;stroke-miterlimit:5;stroke-dasharray:none;stroke-opacity:1;paint-order:stroke fill markers"
       d="m -15592.594,-12446.07 h -3.761"
       id="path32-7" /></g><style
     type="text/css"
     id="style1">
	.puchipuchi_een{fill:#111918;}
</style></svg>
