<?xml version="1.0" encoding="UTF-8" standalone="no"?>
<!-- Created with Inkscape (http://www.inkscape.org/) -->

<svg
   width="43.246094"
   height="62.820316"
   viewBox="0 0 11.442195 16.621209"
   version="1.1"
   id="svg1"
   xml:space="preserve"
   xmlns="http://www.w3.org/2000/svg"
   xmlns:svg="http://www.w3.org/2000/svg"><defs
     id="defs1"><linearGradient
       id="linearGradient65"><stop
         style="stop-color:#ebf7ff;stop-opacity:1;"
         offset="0"
         id="stop66" /><stop
         style="stop-color:#ebf7ff;stop-opacity:0;"
         offset="1"
         id="stop67" /></linearGradient></defs><g
     id="layer1"
     transform="translate(15604.82,12406.225)"><rect
       style="fill:#d0e9ff;fill-opacity:1;fill-rule:evenodd;stroke-width:20.1314;stroke-linecap:round;stroke-miterlimit:5;paint-order:stroke fill markers"
       id="rect1-1-42-2-0-9-7-8-5-6-6-2-0-2-0-55"
       width="128.87512"
       height="47.975407"
       x="-15625.455"
       y="-12420.845"
       rx="7.3746958"
       ry="7.3746958" /><circle
       style="fill:#f9f9f9;fill-opacity:1;fill-rule:evenodd;stroke:none;stroke-width:0.529167;stroke-linecap:round;stroke-linejoin:round;stroke-miterlimit:5;stroke-dasharray:none;stroke-dashoffset:0;stroke-opacity:1;paint-order:stroke fill markers"
       id="path118-2-9-6-7"
       cx="-15599.099"
       cy="-12396.856"
       r="13.849282" /><circle
       style="fill:#f9f9f9;fill-opacity:1;fill-rule:evenodd;stroke:none;stroke-width:0.529167;stroke-linecap:round;stroke-linejoin:round;stroke-miterlimit:5;stroke-dasharray:none;stroke-dashoffset:0;stroke-opacity:1;paint-order:stroke fill markers"
       id="path118-7-9-4-9-8-0"
       cx="-15599.098"
       cy="-12396.856"
       r="13.849282" /><path
       style="fill:#88e3ff;fill-opacity:1;stroke-width:0.0811978"
       d="m -15599.632,-12400.345 c 0.03,-0.148 0.03,-0.166 0.03,-2.174 0,-2.181 0,-2.077 -0.08,-2.299 -0.189,-0.488 -0.716,-0.806 -1.222,-0.738 -0.293,0.04 -0.483,0.132 -0.688,0.337 -0.158,0.159 -0.238,0.283 -0.302,0.471 l -0.05,0.126 v 1.836 c 0,2.039 -0.02,1.906 0.102,2.056 0.04,0.05 0.09,0.1 0.16,0.133 0.1,0.05 0.112,0.06 0.236,0.06 0.121,0 0.142,0 0.232,-0.06 0.107,-0.06 0.173,-0.126 0.228,-0.237 l 0.04,-0.07 v -1.703 -1.702 l 0.04,-0.07 c 0.01,-0.04 0.07,-0.09 0.106,-0.117 0.06,-0.05 0.08,-0.05 0.174,-0.05 0.09,0 0.118,0 0.182,0.05 0.05,0.03 0.09,0.07 0.113,0.116 l 0.04,0.07 v 1.75 1.751 l -0.05,0.125 c -0.06,0.168 -0.14,0.306 -0.262,0.436 -0.172,0.184 -0.374,0.298 -0.617,0.348 -0.605,0.125 -1.21,-0.257 -1.362,-0.86 -0.03,-0.12 -0.03,-0.181 -0.03,-1.974 0,-1.756 0,-1.856 0.03,-2.002 0.202,-1.038 1.234,-1.693 2.254,-1.432 0.334,0.09 0.579,0.227 0.838,0.486 0.321,0.32 0.483,0.658 0.533,1.105 0.02,0.203 0.02,3.868 0,4.092 z"
       id="path262240-3-3" /><path
       id="rect80-7-9-4-9"
       style="fill:#1c96ff;fill-opacity:1;fill-rule:evenodd;stroke-width:3.92524;stroke-linecap:round;stroke-linejoin:round;stroke-miterlimit:5;paint-order:stroke fill markers"
       d="m -15602.069,-12403.853 h 6.792 c 0.355,0 0.846,0.204 1.096,0.456 0.456,0.459 1.156,1.161 1.613,1.618 0.252,0.25 0.459,0.738 0.459,1.093 v 9.662 c 0,0.822 -0.661,1.483 -1.483,1.483 h -8.477 c -0.822,0 -1.483,-0.661 -1.483,-1.483 v -11.347 c 0,-0.822 0.661,-1.482 1.483,-1.482 z"
       transform="translate(-1.2671562,-0.06306773)" /><rect
       style="fill:#88e3ff;fill-opacity:1;fill-rule:evenodd;stroke:none;stroke-width:2.00022;stroke-linecap:round;stroke-linejoin:round;stroke-miterlimit:5;stroke-dasharray:none;stroke-opacity:1;paint-order:stroke fill markers"
       id="rect81-4-36-9-9"
       width="7.4468231"
       height="1.0706296"
       x="-15602.969"
       y="-12398.135"
       rx="0.5353148"
       ry="0.5353148" /><rect
       style="fill:#88e3ff;fill-opacity:1;fill-rule:evenodd;stroke:none;stroke-width:2.00022;stroke-linecap:round;stroke-linejoin:round;stroke-miterlimit:5;stroke-dasharray:none;stroke-opacity:1;paint-order:stroke fill markers"
       id="rect81-5-9-0-7-5"
       width="7.4468231"
       height="1.0706296"
       x="-15602.969"
       y="-12395.845"
       rx="0.5353148"
       ry="0.5353148" /><path
       id="rect81-5-0-3-5-8-8"
       style="fill:#88e3ff;fill-opacity:1;fill-rule:evenodd;stroke-width:2.00022;stroke-linecap:round;stroke-linejoin:round;stroke-miterlimit:5;paint-order:stroke fill markers"
       d="m -15602.435,-12393.554 h 4.138 c 0.296,0 0.535,0.239 0.535,0.536 0,0.296 -0.239,0.535 -0.535,0.535 h -4.138 c -0.296,0 -0.535,-0.239 -0.535,-0.535 0,-0.297 0.239,-0.536 0.535,-0.536 z" /><path
       d="m -15601.894,-12404.738 -0.05,0.125 v 1.834 c 0,2.04 -0.02,1.905 0.103,2.056 0.04,0.05 0.09,0.1 0.16,0.132 0.09,0.05 0.111,0.05 0.236,0.05 0.122,0 0.141,0 0.232,-0.05 0.107,-0.05 0.172,-0.125 0.227,-0.236 l 0.04,-0.07 v -1.701 -1.703 l 0.04,-0.07 c 0.02,-0.04 0.07,-0.09 0.107,-0.118 0.06,-0.05 0.08,-0.05 0.174,-0.05 0.09,0 0.118,0 0.182,0.05 0.05,0.03 0.09,0.07 0.113,0.116 l 0.04,0.07 v 1.75 1.749 l -0.05,0.126 c -0.06,0.167 -0.14,0.305 -0.261,0.434 -0.173,0.185 -0.374,0.299 -0.617,0.349 -0.605,0.126 -1.21,-0.257 -1.362,-0.86 -0.03,-0.12 -0.03,-0.18 -0.03,-1.972 0,-1.756 0,-1.856 0.03,-2.002"
       style="fill:#88e3ff;fill-opacity:1;stroke-width:0.447979"
       id="path1-56-5-7" /></g><style
     type="text/css"
     id="style1">
	.puchipuchi_een{fill:#111918;}
</style></svg>
