<?xml version="1.0" encoding="UTF-8" standalone="no"?>
<!-- Created with Inkscape (http://www.inkscape.org/) -->

<svg
   width="44.070312"
   height="65.984375"
   viewBox="0 0 11.66027 17.458366"
   version="1.1"
   id="svg1"
   xml:space="preserve"
   xmlns="http://www.w3.org/2000/svg"
   xmlns:svg="http://www.w3.org/2000/svg"><defs
     id="defs1"><linearGradient
       id="linearGradient65"><stop
         style="stop-color:#ebf7ff;stop-opacity:1;"
         offset="0"
         id="stop66" /><stop
         style="stop-color:#ebf7ff;stop-opacity:0;"
         offset="1"
         id="stop67" /></linearGradient></defs><g
     id="layer1"
     transform="translate(15740.968,12405.569)"><circle
       style="fill:#f9f9f9;fill-opacity:1;fill-rule:evenodd;stroke:none;stroke-width:0.529167;stroke-linecap:round;stroke-linejoin:round;stroke-miterlimit:5;stroke-dasharray:none;stroke-dashoffset:0;stroke-opacity:1;paint-order:stroke fill markers"
       id="path118-7-2-5"
       cx="-15735.139"
       cy="-12397.34"
       r="13.849282" /><g
       id="g119-8-5-9"
       transform="translate(-13083.725,-6747.6281)"><circle
         style="fill:#f9f9f9;fill-opacity:1;fill-rule:evenodd;stroke:none;stroke-width:0.529167;stroke-linecap:round;stroke-linejoin:round;stroke-miterlimit:5;stroke-dasharray:none;stroke-dashoffset:0;stroke-opacity:1;paint-order:stroke fill markers"
         id="path118-7-4-4"
         cx="-2651.4138"
         cy="-5649.7119"
         r="13.849282" /><g
         id="g262258-0-3-7-2-1"
         transform="matrix(0.58008672,0,0,0.58008672,-1051.006,-4594.6678)"
         style="stroke-width:1.72388"><path
           id="rect80-7-2-2-3-3-1-1-5-4"
           style="fill:#00ffff;fill-opacity:1;fill-rule:evenodd;stroke-width:6.51252;stroke-linecap:round;stroke-linejoin:round;stroke-miterlimit:5;paint-order:stroke fill markers"
           d="m -2768.6417,-1829.4698 h 14.892 c 1.4424,0 2.6036,1.1613 2.6036,2.6037 v 19.9325 c 0,1.4424 -1.1612,2.6036 -2.6036,2.6036 h -14.892 c -1.4425,0 -2.6037,-1.1612 -2.6037,-2.6036 v -19.9325 c 0,-1.4424 1.1612,-2.6037 2.6037,-2.6037 z" /><path
           d="m -2764.0728,-1833.2093 c -1.4425,0 -2.6037,1.1613 -2.6037,2.6037 v 19.9209 c 0,1.4424 1.1612,2.6037 2.6037,2.6037 h 14.892 c 1.4424,0 2.6037,-1.1613 2.6037,-2.6037 v -16.435 h -4.1495 c -0.9596,0 -1.7376,-0.7779 -1.7376,-1.7376 v -4.352 z"
           style="fill:#1c96ff;fill-rule:evenodd;stroke-width:6.51252;stroke-linecap:round;stroke-linejoin:round;stroke-miterlimit:5;paint-order:stroke fill markers"
           id="path84-7-8-8-1-8-7-5-4" /><rect
           style="fill:#00ffff;fill-opacity:1;fill-rule:evenodd;stroke:none;stroke-width:3.3186;stroke-linecap:round;stroke-linejoin:round;stroke-miterlimit:5;stroke-dasharray:none;stroke-opacity:1;paint-order:stroke fill markers"
           id="rect81-4-0-4-4-2-5-4-5-9"
           width="13.080757"
           height="1.8806199"
           x="-2763.1675"
           y="-1822.1564"
           rx="1.6209817"
           ry="1.6209817" /><rect
           style="fill:#00ffff;fill-opacity:1;fill-rule:evenodd;stroke:none;stroke-width:3.3186;stroke-linecap:round;stroke-linejoin:round;stroke-miterlimit:5;stroke-dasharray:none;stroke-opacity:1;paint-order:stroke fill markers"
           id="rect81-5-9-4-0-0-1-9-2-7-9"
           width="13.080757"
           height="1.8806199"
           x="-2763.1675"
           y="-1818.1331"
           rx="1.6209817"
           ry="1.6209817" /><path
           id="rect81-5-0-3-53-9-1-2-1-4-5-4"
           style="fill:#00ffff;fill-rule:evenodd;stroke-width:3.3186;stroke-linecap:round;stroke-linejoin:round;stroke-miterlimit:5;paint-order:stroke fill markers"
           d="m -2762.2268,-1814.1099 h 7.2681 c 0.5209,0 0.9403,0.4194 0.9403,0.9404 0,0.5209 -0.4194,0.9403 -0.9403,0.9403 h -7.2681 c -0.521,0 -0.9404,-0.4194 -0.9404,-0.9403 0,-0.521 0.4194,-0.9404 0.9404,-0.9404 z" /><path
           style="fill:#00ffff;fill-opacity:1;fill-rule:evenodd;stroke:none;stroke-width:22.8056;stroke-linecap:round;stroke-linejoin:round;stroke-miterlimit:5;stroke-dasharray:none;stroke-opacity:1;paint-order:stroke fill markers"
           d="m -3417.6724,1127.1643 23.6345,24.4474 h -16.6587 a 6.9757937,6.9757937 45 0 1 -6.9758,-6.9758 z"
           id="path83-5-9-8-8-6-0-9-7-9"
           transform="matrix(0.24908562,0,0,0.24908562,-1901.1712,-2113.9696)" /></g></g><rect
       style="fill:#ffeeb7;fill-opacity:1;fill-rule:evenodd;stroke-width:20.1314;stroke-linecap:round;stroke-miterlimit:5;paint-order:stroke fill markers"
       id="rect1-1-42-2-0-9-7-8-5-6-6-2-01-3-3"
       width="128.87512"
       height="47.975407"
       x="-15761.494"
       y="-12420.845"
       rx="7.3746958"
       ry="7.3746958" /><circle
       style="fill:#ffffe5;fill-opacity:1;fill-rule:evenodd;stroke:none;stroke-width:0.529167;stroke-linecap:round;stroke-linejoin:round;stroke-miterlimit:5;stroke-dasharray:none;stroke-dashoffset:0;stroke-opacity:1;paint-order:stroke fill markers"
       id="path118-7-9-9"
       cx="-15735.139"
       cy="-12396.856"
       r="13.849282" /><g
       id="g124"
       transform="translate(-1.3249882,-0.33548939)"><path
         d="m -15738.133,-12405.233 c -0.837,0 -1.51,0.673 -1.51,1.51 v 11.556 c 0,0.837 0.673,1.51 1.51,1.51 h 8.639 c 0.836,0 1.51,-0.673 1.51,-1.51 v -9.534 h -2.407 c -0.557,0 -1.008,-0.451 -1.008,-1.008 v -2.524 z"
         style="fill:#ffbd2a;fill-opacity:1;fill-rule:evenodd;stroke-width:3.77783;stroke-linecap:round;stroke-linejoin:round;stroke-miterlimit:5;paint-order:stroke fill markers"
         id="path84-7-8-8-1-8-7-6-0" /><rect
         style="fill:#ffe691;fill-opacity:1;fill-rule:evenodd;stroke:none;stroke-width:1.92508;stroke-linecap:round;stroke-linejoin:round;stroke-miterlimit:5;stroke-dasharray:none;stroke-opacity:1;paint-order:stroke fill markers"
         id="rect81-4-0-4-4-2-5-4-2-6"
         width="7.5879736"
         height="1.0909226"
         x="-15737.607"
         y="-12398.821"
         rx="0.5454613"
         ry="0.5454613" /><rect
         style="fill:#ffbd2a;fill-opacity:1;fill-rule:evenodd;stroke:none;stroke-width:1.92507;stroke-linecap:round;stroke-linejoin:round;stroke-miterlimit:5;stroke-dasharray:none;stroke-opacity:1;paint-order:stroke fill markers"
         id="rect81-4-0-4-4-2-5-4-2-6-0"
         width="11.658579"
         height="1.3185508"
         x="-15739.644"
         y="-12389.094"
         rx="0.65927541"
         ry="0.65927541" /><rect
         style="fill:#ffe691;fill-opacity:1;fill-rule:evenodd;stroke:none;stroke-width:1.92508;stroke-linecap:round;stroke-linejoin:round;stroke-miterlimit:5;stroke-dasharray:none;stroke-opacity:1;paint-order:stroke fill markers"
         id="rect81-5-9-4-0-0-1-9-2-4-0"
         width="7.5879736"
         height="1.0909226"
         x="-15737.607"
         y="-12396.488"
         rx="0.5454613"
         ry="0.5454613" /><path
         id="rect81-5-0-3-53-9-1-2-1-4-4-7"
         style="fill:#ffe691;fill-opacity:1;fill-rule:evenodd;stroke-width:1.92508;stroke-linecap:round;stroke-linejoin:round;stroke-miterlimit:5;paint-order:stroke fill markers"
         d="m -15737.062,-12394.154 h 4.216 c 0.302,0 0.545,0.243 0.545,0.545 0,0.303 -0.243,0.546 -0.545,0.546 h -4.216 c -0.302,0 -0.546,-0.243 -0.546,-0.546 0,-0.302 0.244,-0.545 0.546,-0.545 z" /><path
         style="fill:#ffe691;fill-opacity:1;fill-rule:evenodd;stroke:none;stroke-width:22.8056;stroke-linecap:round;stroke-linejoin:round;stroke-miterlimit:5;stroke-dasharray:none;stroke-opacity:1;paint-order:stroke fill markers"
         d="m -3417.6724,1127.1643 23.6345,24.4474 h -16.6587 a 6.9757937,6.9757937 45 0 1 -6.9758,-6.9758 z"
         id="path83-5-9-8-8-6-0-9-2-5"
         transform="matrix(0.14449126,0,0,0.14449126,-15237.575,-12568.099)" /></g></g><style
     type="text/css"
     id="style1">
	.puchipuchi_een{fill:#111918;}
</style></svg>
