<?xml version="1.0" encoding="UTF-8" standalone="no"?>
<!-- Created with Inkscape (http://www.inkscape.org/) -->

<svg
   width="54.082031"
   height="63.316406"
   viewBox="0 0 14.309204 16.752466"
   version="1.1"
   id="svg1"
   xml:space="preserve"
   xmlns="http://www.w3.org/2000/svg"
   xmlns:svg="http://www.w3.org/2000/svg"><defs
     id="defs1"><linearGradient
       id="linearGradient65"><stop
         style="stop-color:#ebf7ff;stop-opacity:1;"
         offset="0"
         id="stop66" /><stop
         style="stop-color:#ebf7ff;stop-opacity:0;"
         offset="1"
         id="stop67" /></linearGradient></defs><g
     id="layer1"
     transform="translate(15742.293,12512.939)"><rect
       style="fill:#ffeeb7;fill-opacity:1;fill-rule:evenodd;stroke-width:20.1314;stroke-linecap:round;stroke-miterlimit:5;paint-order:stroke fill markers"
       id="rect1-1-42-2-0-9-7-8-5-6-6-2-1"
       width="128.87512"
       height="47.975407"
       x="-15761.494"
       y="-12528.55"
       rx="7.3746958"
       ry="7.3746958" /><circle
       style="fill:#ffffe5;fill-opacity:1;fill-rule:evenodd;stroke:none;stroke-width:0.529167;stroke-linecap:round;stroke-linejoin:round;stroke-miterlimit:5;stroke-dasharray:none;stroke-dashoffset:0;stroke-opacity:1;paint-order:stroke fill markers"
       id="path118-1"
       cx="-15735.139"
       cy="-12504.562"
       r="13.849282" /><g
       id="g262258-0-3-7"
       transform="matrix(0.58008672,0,0,0.58008672,-14134.731,-11449.518)"
       style="stroke-width:1.72388"><path
         id="rect80-7-2-2-3-3-1-5"
         style="fill:#ffe691;fill-opacity:1;fill-rule:evenodd;stroke-width:6.51252;stroke-linecap:round;stroke-linejoin:round;stroke-miterlimit:5;paint-order:stroke fill markers"
         d="m -2768.6417,-1829.4698 h 14.892 c 1.4424,0 2.6036,1.1613 2.6036,2.6037 v 19.9325 c 0,1.4424 -1.1612,2.6036 -2.6036,2.6036 h -14.892 c -1.4425,0 -2.6037,-1.1612 -2.6037,-2.6036 v -19.9325 c 0,-1.4424 1.1612,-2.6037 2.6037,-2.6037 z" /><path
         d="m -2764.0728,-1833.2093 c -1.4425,0 -2.6037,1.1613 -2.6037,2.6037 v 19.9209 c 0,1.4424 1.1612,2.6037 2.6037,2.6037 h 14.892 c 1.4424,0 2.6037,-1.1613 2.6037,-2.6037 v -16.435 h -4.1495 c -0.9596,0 -1.7376,-0.7779 -1.7376,-1.7376 v -4.352 z"
         style="fill:#ffbd2a;fill-opacity:1;fill-rule:evenodd;stroke-width:6.51252;stroke-linecap:round;stroke-linejoin:round;stroke-miterlimit:5;paint-order:stroke fill markers"
         id="path84-7-8-8-1-8-9" /><rect
         style="fill:#ffe691;fill-opacity:1;fill-rule:evenodd;stroke:none;stroke-width:3.3186;stroke-linecap:round;stroke-linejoin:round;stroke-miterlimit:5;stroke-dasharray:none;stroke-opacity:1;paint-order:stroke fill markers"
         id="rect81-4-0-4-4-2-5-9"
         width="13.080757"
         height="1.8806199"
         x="-2763.1675"
         y="-1822.1564"
         rx="1.6209817"
         ry="1.6209817" /><rect
         style="fill:#ffe691;fill-opacity:1;fill-rule:evenodd;stroke:none;stroke-width:3.3186;stroke-linecap:round;stroke-linejoin:round;stroke-miterlimit:5;stroke-dasharray:none;stroke-opacity:1;paint-order:stroke fill markers"
         id="rect81-5-9-4-0-0-1-9-4"
         width="13.080757"
         height="1.8806199"
         x="-2763.1675"
         y="-1818.1331"
         rx="1.6209817"
         ry="1.6209817" /><path
         id="rect81-5-0-3-53-9-1-2-1-9"
         style="fill:#ffe691;fill-opacity:1;fill-rule:evenodd;stroke-width:3.3186;stroke-linecap:round;stroke-linejoin:round;stroke-miterlimit:5;paint-order:stroke fill markers"
         d="m -2762.2268,-1814.1099 h 7.2681 c 0.5209,0 0.9403,0.4194 0.9403,0.9404 0,0.5209 -0.4194,0.9403 -0.9403,0.9403 h -7.2681 c -0.521,0 -0.9404,-0.4194 -0.9404,-0.9403 0,-0.521 0.4194,-0.9404 0.9404,-0.9404 z" /><path
         style="fill:#ffe691;fill-opacity:1;fill-rule:evenodd;stroke:none;stroke-width:22.8056;stroke-linecap:round;stroke-linejoin:round;stroke-miterlimit:5;stroke-dasharray:none;stroke-opacity:1;paint-order:stroke fill markers"
         d="m -3417.6724,1127.1643 23.6345,24.4474 h -16.6587 a 6.9757937,6.9757937 45 0 1 -6.9758,-6.9758 z"
         id="path83-5-9-8-8-6-0-5"
         transform="matrix(0.24908562,0,0,0.24908562,-1901.1712,-2113.9696)" /></g></g><style
     type="text/css"
     id="style1">
	.puchipuchi_een{fill:#111918;}
</style></svg>
