<?xml version="1.0" encoding="UTF-8" standalone="no"?>
<!-- Created with Inkscape (http://www.inkscape.org/) -->

<svg
   width="60.109375"
   height="60.109375"
   viewBox="0 0 15.903938 15.903939"
   version="1.1"
   id="svg1"
   xml:space="preserve"
   xmlns="http://www.w3.org/2000/svg"
   xmlns:svg="http://www.w3.org/2000/svg"><defs
     id="defs1"><linearGradient
       id="linearGradient65"><stop
         style="stop-color:#ebf7ff;stop-opacity:1;"
         offset="0"
         id="stop66" /><stop
         style="stop-color:#ebf7ff;stop-opacity:0;"
         offset="1"
         id="stop67" /></linearGradient></defs><g
     id="layer1"
     transform="translate(15586.939,12265.615)"><g
       style="fill:#1c96ff;fill-opacity:1;stroke-width:3.1056"
       id="g45-7-3-4"
       transform="matrix(0.79517482,0,0,0.79517482,-15588.529,-12267.205)"
       clip-path="none"><path
         fill-rule="evenodd"
         clip-rule="evenodd"
         d="m 13.9838,2.54161 c 0.0873,0.16932 0.109,0.38616 0.1523,0.81983 0.0821,0.82086 0.1232,1.2313 0.295,1.45649 0.2179,0.28565 0.5723,0.43245 0.9284,0.38455 0.2807,-0.03776 0.5999,-0.29896 1.2384,-0.82135 0.3373,-0.27598 0.5059,-0.41397 0.6874,-0.47195 0.2305,-0.07363 0.4799,-0.0612 0.7019,0.03501 0.1748,0.07575 0.3289,0.22983 0.6371,0.53801 l 0.8935,0.89347 c 0.3081,0.30818 0.4622,0.46227 0.538,0.63708 0.0962,0.22203 0.1086,0.4714 0.035,0.70189 -0.058,0.18148 -0.196,0.35014 -0.472,0.68746 -0.5224,0.6385 -0.7836,0.95774 -0.8213,1.23846 -0.0479,0.35606 0.0989,0.71046 0.3845,0.92837 0.2252,0.17179 0.6356,0.21283 1.4565,0.29492 0.4337,0.04337 0.6506,0.06506 0.8199,0.15235 0.215,0.111 0.3826,0.2961 0.4715,0.5211 C 22,10.7145 22,10.9324 22,11.3682 v 1.2637 c 0,0.4357 0,0.6536 -0.07,0.8307 -0.089,0.2251 -0.2566,0.4103 -0.4717,0.5212 -0.1693,0.0873 -0.3861,0.109 -0.8197,0.1523 v 0 c -0.8206,0.0821 -1.2309,0.1231 -1.4561,0.2948 -0.2858,0.218 -0.4326,0.5725 -0.3846,0.9287 0.0378,0.2806 0.2989,0.5997 0.8211,1.238 0.2759,0.3372 0.4138,0.5058 0.4718,0.6872 0.0737,0.2306 0.0612,0.48 -0.035,0.7021 -0.0758,0.1748 -0.2298,0.3288 -0.5379,0.6369 l -0.8936,0.8936 c -0.3081,0.3081 -0.4622,0.4622 -0.637,0.538 -0.2221,0.0962 -0.4714,0.1086 -0.7019,0.035 -0.1815,-0.058 -0.3502,-0.196 -0.6875,-0.472 v 0 c -0.6385,-0.5224 -0.9577,-0.7836 -1.2384,-0.8213 -0.3561,-0.0479 -0.7105,0.0989 -0.9284,0.3845 -0.1718,0.2252 -0.2128,0.6357 -0.2949,1.4567 -0.0434,0.4339 -0.0651,0.6508 -0.1525,0.8202 -0.1109,0.215 -0.296,0.3824 -0.5209,0.4714 C 13.2856,22 13.0676,22 12.6316,22 H 11.3682 C 10.9324,22 10.7145,22 10.5373,21.9299 10.3123,21.841 10.1272,21.6734 10.0162,21.4584 9.92891,21.2891 9.90722,21.0722 9.86385,20.6385 9.78176,19.8176 9.74072,19.4072 9.56892,19.182 9.35101,18.8964 8.99663,18.7496 8.64057,18.7975 8.35985,18.8352 8.04059,19.0964 7.40208,19.6189 h -2e-5 C 7.06473,19.8949 6.89607,20.0329 6.71458,20.0908 6.4841,20.1645 6.23474,20.152 6.01272,20.0558 5.8379,19.9801 5.6838,19.826 5.37561,19.5178 L 4.48217,18.6243 C 4.17398,18.3162 4.01988,18.1621 3.94414,17.9873 3.84794,17.7652 3.8355,17.5159 3.90913,17.2854 3.96711,17.1039 4.10511,16.9352 4.3811,16.5979 4.90351,15.9594 5.16471,15.6402 5.20247,15.3594 5.25037,15.0034 5.10357,14.649 4.81792,14.4311 4.59273,14.2593 4.1823,14.2182 3.36143,14.1361 2.92776,14.0928 2.71093,14.0711 2.54161,13.9838 2.32656,13.8728 2.15902,13.6877 2.07005,13.4627 2,13.2855 2,13.0676 2,12.6318 V 11.3683 C 2,10.9324 2,10.7144 2.07008,10.5372 2.15905,10.3123 2.32654,10.1272 2.54152,10.0163 2.71088,9.92891 2.92777,9.90722 3.36155,9.86384 v 0 h 1e-5 C 4.18264,9.78173 4.59319,9.74068 4.81842,9.56881 5.10395,9.35092 5.2507,8.99664 5.20287,8.64066 5.16514,8.35987 4.90385,8.04052 4.38128,7.40182 4.10516,7.06435 3.96711,6.89561 3.90914,6.71405 3.83557,6.48364 3.848,6.23438 3.94413,6.01243 4.01988,5.83754 4.17403,5.68339 4.48233,5.37509 L 5.37565,4.48177 h 10e-6 C 5.68385,4.17357 5.83795,4.01947 6.01277,3.94373 6.23478,3.84753 6.48414,3.8351 6.71463,3.90872 6.89612,3.9667 7.06481,4.10472 7.4022,4.38076 8.04061,4.9031 8.35982,5.16427 8.64044,5.20207 8.99661,5.25003 9.35113,5.10319 9.56907,4.81742 9.74077,4.59227 9.78181,4.18195 9.86387,3.36131 9.90722,2.92776 9.9289,2.71098 10.0162,2.5417 10.1271,2.32658 10.3123,2.15898 10.5374,2.07001 10.7145,2 10.9324,2 11.3681,2 h 1.2637 c 0.4358,0 0.6537,0 0.8309,0.07005 0.225,0.08897 0.4101,0.25651 0.5211,0.47156 z M 12,16 c 2.2091,0 4,-1.7909 4,-4 0,-2.20914 -1.7909,-4 -4,-4 -2.20914,0 -4,1.79086 -4,4 0,2.2091 1.79086,4 4,4 z"
         fill="#222222"
         id="path1-6-2-8-0"
         style="fill:#1c96ff;fill-opacity:1;stroke-width:3.1056" /></g><circle
       style="fill:#1c96ff;fill-opacity:1;fill-rule:evenodd;stroke:none;stroke-width:0.793751;stroke-linecap:round;stroke-linejoin:round;stroke-miterlimit:5;stroke-dasharray:none;stroke-opacity:1;paint-order:stroke fill markers"
       id="path45-1-0-5"
       cx="-15578.987"
       cy="-12257.664"
       r="1.4236985" /></g><style
     type="text/css"
     id="style1">
	.puchipuchi_een{fill:#111918;}
</style></svg>
