<?xml version="1.0" encoding="UTF-8" standalone="no"?>
<!-- Created with Inkscape (http://www.inkscape.org/) -->

<svg
   width="50.851562"
   height="52.410156"
   viewBox="0 0 13.454475 13.866854"
   version="1.1"
   id="svg1"
   xml:space="preserve"
   xmlns="http://www.w3.org/2000/svg"
   xmlns:svg="http://www.w3.org/2000/svg"><defs
     id="defs1"><linearGradient
       id="linearGradient65"><stop
         style="stop-color:#ebf7ff;stop-opacity:1;"
         offset="0"
         id="stop66" /><stop
         style="stop-color:#ebf7ff;stop-opacity:0;"
         offset="1"
         id="stop67" /></linearGradient></defs><g
     id="layer1"
     transform="translate(15605.759,12511.496)"><rect
       style="fill:#d0e9ff;fill-opacity:1;fill-rule:evenodd;stroke-width:20.1314;stroke-linecap:round;stroke-miterlimit:5;paint-order:stroke fill markers"
       id="rect1-1-42-2-0-9-7-8-5-6-6-2-0-8"
       width="128.87512"
       height="47.975407"
       x="-15625.455"
       y="-12528.55"
       rx="7.3746958"
       ry="7.3746958" /><rect
       style="fill:#f9f9f9;fill-opacity:1;fill-rule:evenodd;stroke:none;stroke-width:0.529167;stroke-linecap:round;stroke-linejoin:round;stroke-miterlimit:5;stroke-dasharray:none;stroke-dashoffset:0;stroke-opacity:1;paint-order:stroke fill markers"
       id="rect122-2"
       width="24.606283"
       height="24.873631"
       x="-15611.335"
       y="-12516.999"
       rx="12.303142"
       ry="12.303142" /><rect
       style="fill:#1c96ff;fill-opacity:1;fill-rule:evenodd;stroke:none;stroke-width:4.35213;stroke-linecap:round;stroke-linejoin:round;stroke-miterlimit:5;stroke-dasharray:none;stroke-opacity:1;paint-order:stroke fill markers"
       id="rect84-6-9-0-7-1-9"
       width="10.827456"
       height="11.261437"
       x="-15603.132"
       y="-12508.89"
       rx="2.7564363"
       ry="2.7564363" /><rect
       style="fill:#88e3ff;fill-opacity:1;fill-rule:evenodd;stroke:none;stroke-width:4.35213;stroke-linecap:round;stroke-linejoin:round;stroke-miterlimit:5;stroke-dasharray:none;stroke-opacity:1;paint-order:stroke fill markers"
       id="rect84-7-1-7-6-7"
       width="10.827456"
       height="11.261437"
       x="-15604.387"
       y="-12510.192"
       rx="2.7564363"
       ry="2.7564363" /><path
       d="m -15596.335,-12511.496 c 0.778,0 1.403,0.626 1.403,1.403 v 8.456 c 0,0.777 -0.625,1.403 -1.403,1.403 h -8.022 c -0.777,0 -1.402,-0.626 -1.402,-1.403 v -6.578 h 2.235 c 0.517,0 0.936,-0.419 0.936,-0.936 v -2.345 z"
       style="fill:#1c96ff;fill-opacity:1;fill-rule:evenodd;stroke-width:3.93864;stroke-linecap:round;stroke-linejoin:round;stroke-miterlimit:5;paint-order:stroke fill markers"
       id="path84-8-1-2-0-5-3" /><rect
       style="fill:#88e3ff;fill-opacity:1;fill-rule:evenodd;stroke:none;stroke-width:2.00701;stroke-linecap:round;stroke-linejoin:round;stroke-miterlimit:5;stroke-dasharray:none;stroke-opacity:1;paint-order:stroke fill markers"
       id="rect81-4-3-8-9-7-1-4"
       width="7.0465393"
       height="1.0130807"
       x="-15603.869"
       y="-12506.048"
       rx="0.98033392"
       ry="0.98033392" /><path
       id="rect81-5-0-3-4-8-8-2-7-8"
       style="fill:#88e3ff;fill-opacity:1;fill-rule:evenodd;stroke-width:2.00701;stroke-linecap:round;stroke-linejoin:round;stroke-miterlimit:5;paint-order:stroke fill markers"
       d="m -15603.362,-12504.08 h 3.915 c 0.281,0 0.506,0.226 0.506,0.507 0,0.28 -0.225,0.506 -0.506,0.506 h -3.915 c -0.281,0 -0.507,-0.226 -0.507,-0.506 0,-0.281 0.226,-0.507 0.507,-0.507 z" /><path
       style="fill:#88e3ff;fill-opacity:1;fill-rule:evenodd;stroke:none;stroke-width:25.6033;stroke-linecap:round;stroke-linejoin:round;stroke-miterlimit:5;stroke-dasharray:none;stroke-opacity:1;paint-order:stroke fill markers"
       d="m -3417.6724,1127.1643 23.6345,24.4474 h -16.6587 a 6.9757937,6.9757937 45 0 1 -6.9758,-6.9758 z"
       id="path83-5-4-7-7-7-0-67"
       transform="matrix(-0.1341812,0,0,0.1341812,-16061.175,-12662.74)" /></g><style
     type="text/css"
     id="style1">
	.puchipuchi_een{fill:#111918;}
</style></svg>
