<?xml version="1.0" encoding="UTF-8" standalone="no"?>
<!-- Created with Inkscape (http://www.inkscape.org/) -->

<svg
   width="517.30029"
   height="703.86768"
   viewBox="0 0 136.86903 186.23166"
   version="1.1"
   id="svg1"
   xml:space="preserve"
   xmlns="http://www.w3.org/2000/svg"
   xmlns:svg="http://www.w3.org/2000/svg"><defs
     id="defs1"><linearGradient
       id="linearGradient65"><stop
         style="stop-color:#ebf7ff;stop-opacity:1;"
         offset="0"
         id="stop66" /><stop
         style="stop-color:#ebf7ff;stop-opacity:0;"
         offset="1"
         id="stop67" /></linearGradient></defs><g
     id="layer1"
     transform="translate(-1834.0722,895.51707)"><g
       id="g170"
       transform="matrix(0.88628961,0,0,0.88628961,129.07357,-724.01392)"><path
         style="clip-rule:evenodd;fill:#a1d7ff;fill-opacity:1;fill-rule:evenodd;stroke-width:0.483354"
         d="m 1923.8657,-12.067787 c -0.7951,4.921997 2.5492,9.5554312 7.4703,10.3500657 l 112.7979,18.2190733 c 4.9206,0.794634 9.5555,-2.550177 10.3506,-7.4716907 l 23.5766,-158.2115213 c 0.7951,-4.92248 -2.5507,-9.55689 -7.4717,-10.35152 l -112.7985,-18.21859 c -4.9205,-0.79463 -9.554,2.55066 -10.3486,7.47314 z"
         id="path15" /><g
         id="g21"
         transform="matrix(0.48335429,0,0,0.48335429,1845.5621,-205.34657)">
						<path
   style="clip-rule:evenodd;fill:#ffffff;fill-rule:evenodd"
   d="m 226.438,108.638 c -0.667,4.127 2.135,8.012 6.263,8.679 l 112.392,18.154 c 4.129,0.667 8.01,-2.139 8.676,-6.266 v 0 c 0.667,-4.128 -2.133,-8.013 -6.262,-8.68 L 235.115,102.37 c -4.127,-0.666 -8.01,2.14 -8.677,6.268 z"
   id="path16" />
						<path
   style="clip-rule:evenodd;fill:#ffffff;fill-rule:evenodd"
   d="m 222.157,141.956 c -0.667,4.127 2.135,8.012 6.263,8.679 l 112.392,18.154 c 4.129,0.667 8.01,-2.139 8.677,-6.266 v 0 c 0.667,-4.128 -2.133,-8.013 -6.262,-8.68 L 230.835,135.689 c -4.128,-0.667 -8.011,2.139 -8.678,6.267 z"
   id="path17" />
						<path
   style="clip-rule:evenodd;fill:#ffffff;fill-rule:evenodd"
   d="m 216.545,175.209 c -0.667,4.127 2.135,8.012 6.263,8.679 l 215.432,34.846 c 4.129,0.667 8.01,-2.139 8.677,-6.266 v 0 c 0.667,-4.128 -2.133,-8.013 -6.262,-8.68 L 225.223,168.942 c -4.128,-0.667 -8.011,2.139 -8.678,6.267 z"
   id="path18" />
						<path
   style="clip-rule:evenodd;fill:#ffffff;fill-rule:evenodd"
   d="m 212.721,211.994 c -0.667,4.127 2.135,8.012 6.263,8.679 l 215.432,34.846 c 4.129,0.667 8.01,-2.139 8.677,-6.266 v 0 c 0.667,-4.128 -2.133,-8.013 -6.262,-8.68 L 221.399,205.727 c -4.129,-0.667 -8.011,2.139 -8.678,6.267 z"
   id="path19" />
						<path
   style="clip-rule:evenodd;fill:#ffffff;fill-rule:evenodd"
   d="m 206.46,246.286 c -0.667,4.127 2.136,8.012 6.263,8.679 l 215.432,34.846 c 4.129,0.667 8.01,-2.139 8.676,-6.266 v 0 c 0.667,-4.128 -2.133,-8.013 -6.262,-8.68 L 215.137,240.019 c -4.127,-0.667 -8.01,2.139 -8.677,6.267 z"
   id="path20" />
						<path
   style="clip-rule:evenodd;fill:#ffffff;fill-rule:evenodd"
   d="m 202.636,283.071 c -0.667,4.127 2.135,8.012 6.263,8.679 l 215.432,34.846 c 4.129,0.667 8.01,-2.139 8.677,-6.266 v 0 c 0.667,-4.128 -2.133,-8.013 -6.262,-8.68 L 211.314,276.804 c -4.128,-0.667 -8.011,2.139 -8.678,6.267 z"
   id="path21" />
					</g><g
         id="g23"
         transform="matrix(0.48335429,0,0,0.48335429,1845.5621,-205.34657)">
						<path
   style="fill:#1d7dff;fill-opacity:1"
   d="m 363.723,135.71 c 4.173,-25.835 28.501,-43.396 54.336,-39.223 25.837,4.173 43.396,28.499 39.223,54.334 -1.813,11.227 -7.432,20.893 -15.328,27.891 l -72.198,-11.254 c -5.479,-9.217 -7.877,-20.336 -6.033,-31.748 z"
   id="path22" />
						<path
   style="fill:#0dcbff;fill-opacity:1"
   d="m 402.947,190.048 c -14.422,-2.329 -26.261,-10.944 -33.185,-22.593 2.968,-1.914 6.733,-2.864 11.561,-3.449 5.632,-0.683 11.281,-1.063 13.341,-5.416 3.495,-7.394 -1.707,-15.784 -2.362,-23.977 -1.268,-15.892 11.297,-31.109 25.804,-27.444 13.868,3.507 18.857,21.864 12.03,35.781 -3.154,6.431 -10.717,12.706 -9.143,20.785 1.106,5.694 10.146,6.804 16.093,10.611 2.039,1.308 3.641,2.749 4.865,4.361 -10.272,9.107 -24.395,13.701 -39.004,11.341 z"
   id="path23" />
					</g><g
         id="g25"
         transform="matrix(0.48335429,0,0,0.48335429,1840.2704,-206.4049)">
					<path
   style="fill:#222221"
   d="m 327.5,47.457 c -0.779,-0.136 -1.54,0.036 -2.177,0.48 -0.635,0.446 -1.061,1.114 -1.195,1.882 L 316.6,92.23 c -0.546,3.077 -2.262,5.76 -4.831,7.555 -2.569,1.796 -5.68,2.479 -8.752,1.934 -3.078,-0.544 -5.761,-2.258 -7.556,-4.825 -1.796,-2.568 -2.486,-5.675 -1.94,-8.752 l 8.695,-49.008 c 0.775,-4.361 4.971,-7.276 9.316,-6.51 4.363,0.778 7.283,4.958 6.507,9.319 l -7.181,40.498 c -0.209,1.186 -0.87,2.221 -1.861,2.916 -0.996,0.697 -2.206,0.961 -3.389,0.755 -2.457,-0.437 -4.101,-2.794 -3.669,-5.255 l 5.32,-29.972 c 0.272,-1.578 -0.785,-3.09 -2.358,-3.369 -0.769,-0.132 -1.54,0.035 -2.177,0.479 -0.639,0.446 -1.063,1.113 -1.197,1.878 L 296.21,79.84 c -0.992,5.624 2.77,11.006 8.384,11.998 2.711,0.483 5.462,-0.122 7.729,-1.707 2.27,-1.584 3.784,-3.954 4.265,-6.672 l 7.187,-40.496 c 0.647,-3.64 -0.166,-7.316 -2.287,-10.352 -2.122,-3.037 -5.294,-5.065 -8.934,-5.709 -3.642,-0.649 -7.317,0.165 -10.353,2.287 -3.038,2.121 -5.067,5.292 -5.712,8.929 l -8.689,49.01 c -1.688,9.517 4.683,18.635 14.2,20.325 1.033,0.183 2.059,0.271 3.072,0.271 8.338,0 15.756,-5.985 17.266,-14.475 l 7.52,-42.422 c 0.277,-1.579 -0.78,-3.091 -2.358,-3.37 z"
   id="path24" />
					<path
   style="fill:#222221"
   d="m 411.335,399.087 c 0,-0.002 -0.002,-0.002 -0.002,-0.002 -4.548,-2.347 -8.536,-2.844 -12.38,-1.439 0.091,-4.603 -1.148,-9.716 -7.226,-11.672 -0.202,-0.063 -0.39,-0.109 -0.658,-0.168 -0.004,-10e-4 -0.008,0 -0.012,-10e-4 -0.289,-0.1 -0.589,-0.171 -0.9,-0.214 -0.017,-0.004 -0.029,-0.015 -0.046,-0.019 -1.114,-0.218 -2.19,-0.279 -3.223,-0.184 2.038,-10.304 0.089,-16.729 -5.821,-19.132 -2.338,-0.949 -4.771,-0.946 -7.027,0.011 -6.237,2.642 -10,11.983 -12.489,18.165 -0.481,1.196 -0.899,2.238 -1.257,3.012 l -0.715,1.555 c -2.937,6.4 -5.971,13.02 -11.073,17.194 -1.557,1.276 -2.27,1.23 -2.26,1.242 -0.776,-0.336 -2.224,-4.09 -2.059,-11.241 0.449,-19.57 12.389,-40.734 31.939,-56.616 0.806,-0.654 1.253,-1.818 1.089,-2.844 -0.213,-1.319 -1.232,-2.36 -2.948,-3.012 -2.151,-0.815 -3.502,-0.257 -4.249,0.352 -19.228,15.617 -31.288,35.968 -33.957,57.304 -0.672,5.379 -1.117,15.14 3.454,20.09 1.777,1.924 4.144,2.932 6.872,2.932 0.168,0 0.338,-0.004 0.508,-0.011 12.122,-0.547 18.163,-15.251 22.575,-25.986 0.919,-2.238 1.786,-4.349 2.578,-5.987 1.462,-3.03 2.841,-5.436 4.344,-7.573 0.767,-1.089 1.289,-1.391 1.316,-1.48 0.3,0.247 1.008,1.412 1.069,3.52 0.213,7.551 -2.68,15.744 -5.663,23.492 -0.533,1.393 -0.098,3.264 2.081,4.303 2.426,1.155 4.737,0.751 5.758,-1.012 0.645,-1.117 1.237,-2.256 1.829,-3.391 1.512,-2.9 2.939,-5.638 5.136,-7.75 0.513,-0.492 0.895,-0.781 1.153,-0.954 0.869,2.002 0.983,8.294 0.186,14.395 -0.077,0.574 -0.136,2.542 2.335,3.697 0.778,0.365 1.698,0.62 2.594,0.62 0.965,0 1.904,-0.295 2.615,-1.067 l 0.499,-0.545 c 3.965,-4.333 6.087,-6.037 9.832,-4.099 0.699,0.356 4.532,1.602 5.942,-1.121 0.488,-0.946 0.751,-3.075 -1.739,-4.364 z m -1.336,2.579 z m -1.333,2.58 1.037,-2.008 c 0.003,0 0.005,0 0.007,0 l -1.017,2.023 c -0.008,-0.004 -0.017,-0.01 -0.027,-0.015 z"
   id="path25" />
				</g></g></g></svg>
