<?xml version="1.0" encoding="UTF-8" standalone="no"?>
<!-- Created with Inkscape (http://www.inkscape.org/) -->

<svg
   width="678.87646"
   height="1159.5596"
   viewBox="0 0 179.61939 306.80014"
   version="1.1"
   id="svg1"
   xml:space="preserve"
   xmlns:xlink="http://www.w3.org/1999/xlink"
   xmlns="http://www.w3.org/2000/svg"
   xmlns:svg="http://www.w3.org/2000/svg"><defs
     id="defs1"><linearGradient
       id="linearGradient65"><stop
         style="stop-color:#ebf7ff;stop-opacity:1;"
         offset="0"
         id="stop66" /><stop
         style="stop-color:#ebf7ff;stop-opacity:0;"
         offset="1"
         id="stop67" /></linearGradient><linearGradient
       xlink:href="#linearGradient8"
       id="linearGradient9"
       x1="1808.6245"
       y1="2562.25"
       x2="1556.1672"
       y2="3004.7471"
       gradientUnits="userSpaceOnUse"
       gradientTransform="matrix(-0.00581477,0.9999831,0.9999831,0.00581477,-1105.6371,659.46905)" /><linearGradient
       id="linearGradient8"><stop
         style="stop-color:#000000;stop-opacity:1;"
         offset="0"
         id="stop8" /><stop
         style="stop-color:#85a5ff;stop-opacity:1;"
         offset="0.65470856"
         id="stop9" /></linearGradient><clipPath
       clipPathUnits="userSpaceOnUse"
       id="clipPath158"><rect
         style="fill:#0079d2;fill-opacity:1;fill-rule:evenodd;stroke:none;stroke-width:166.792;stroke-linecap:round;stroke-miterlimit:5;stroke-opacity:1;paint-order:stroke fill markers"
         id="rect158"
         width="1200.8945"
         height="2134.9236"
         x="150.2607"
         y="1386.8721" /></clipPath></defs><g
     id="layer1"
     transform="translate(-1183.7348,898.52434)"><g
       id="g39"
       transform="matrix(0.23794761,0,0,0.23794761,1041.8501,-1254.2007)"
       clip-path="url(#clipPath158)"><path
         style="fill:#85a5ff;fill-opacity:1;fill-rule:evenodd;stroke-width:172.972;stroke-linejoin:round;stroke-miterlimit:5;paint-order:stroke fill markers"
         d="m 1474.9131,2313.0047 h 594.8807 a 85.427101,85.427101 56.606606 0 1 78.5113,119.0985 l -224.4818,523.4219 z"
         id="path7"
         transform="translate(-79.512684,-379.95075)" /><path
         style="fill:url(#linearGradient9);fill-opacity:1;fill-rule:evenodd;stroke-width:132.292;stroke-linejoin:round;stroke-miterlimit:5;paint-order:stroke fill markers"
         d="m 1395.4004,1933.0539 448.9102,642.5204 -210.8734,-642.5203 z"
         id="path8" /><g
         id="g158"
         transform="translate(83.540115,-73.411263)"><path
           d="m 1140.4725,1568.1787 -561.16833,386.581 c -70.11575,48.3015 -87.64367,144.379 -39.10097,214.328 l 58.02879,83.6183 a 1561.9467,1561.9467 41.117474 0 0 574.24341,501.2529 l 203.3351,103.58 468.5002,-281.9643 z m -6.0839,152.5809 c 7.0677,-0.5646 13.8996,2.6846 17.9219,8.5235 6.2174,9.0258 3.9403,21.383 -5.086,27.5998 L 643.86922,2103.637 c -9.02547,6.2178 -21.38259,3.9413 -27.59986,-5.0845 -6.2175,-9.0252 -3.94134,-21.3819 5.08392,-27.5993 l 503.35742,-346.7541 c 2.8682,-1.976 6.206,-3.1622 9.6779,-3.4395 z"
           style="fill:#a1d7ff;fill-rule:evenodd;stroke-width:143.015;stroke-linejoin:round;stroke-miterlimit:5;paint-order:stroke fill markers"
           id="path39" /><path
           style="fill:#ffffff;fill-opacity:1;fill-rule:evenodd;stroke:#ffffff;stroke-width:39.6878;stroke-linecap:round;stroke-linejoin:miter;stroke-miterlimit:5;stroke-dasharray:none;stroke-opacity:1;paint-order:stroke fill markers"
           d="M 691.87787,2164.6296 1195.2344,1817.8757"
           id="path34-7" /></g></g></g></svg>
